<svg t="1724404554463" class="icon" viewBox="0 0 1024 1024" version="1.1" xmlns="http://www.w3.org/2000/svg" p-id="6238" width="20" height="20"><path d="M517.176889 28.444444c124.359111 0 240.184889 46.449778 328.931555 122.965334 2.190222 2.56 4.124444 5.048889 5.632 7.409778 55.025778 127.232-75.064889 181.276444-130.104888 145.052444-55.04-36.224-15.416889-91.363556-42.737778-101.134222-44.657778 2.645333-80.554667 47.829333-145.422222 53.802666-13.482667 0-47.886222-6.570667-79.217778-4.764444-30.862222 1.777778-59.633778 10.695111-70.926222 10.695111-68.935111-4.352-94.208-36.622222-105.856-26.652444-3.541333 16.568889 3.626667 80.170667-1.678223 107.548444-5.319111 27.377778-54.727111 93.795556-65.792 162.759111-11.050667 68.977778-6.385778 113.891556 7.338667 149.319111 13.724444 35.413333 81.692444 165.091556 316.131556 165.091556 242.602667-2.275556 312.604444-135.253333 312.604444-179.100445 0-43.861333-24.277333-56.817778-141.525333-64.426666-117.248-7.594667-186.595556-3.811556-192.810667-47.672889-6.215111-43.861333 15.872-76.586667 55.822222-82.958222 39.964444-6.371556 177.464889-8.675556 227.982222-4.337778 50.161778 4.309333 223.288889 54.186667 198.570667 218.424889-64.241778 196.821333-257.265778 334.563556-476.942222 334.563555C247.253333 995.029333 28.444444 787.086222 28.444444 517.162667 28.444444 247.267556 247.253333 28.444444 517.176889 28.444444z" fill="#da203e" p-id="6239"></path></svg>