<svg xmlns="http://www.w3.org/2000/svg" xmlns:xlink="http://www.w3.org/1999/xlink" width="23" height="23" viewBox="0 0 23 23" fill="none">
<path d="M19.3487 22.6546L3.65125 22.6546C3.61459 22.6534 3.57799 22.6514 3.54144 22.6485C3.50489 22.6456 3.46842 22.6417 3.43205 22.6371C3.39568 22.6324 3.35944 22.6269 3.32334 22.6205C3.28724 22.614 3.25132 22.6068 3.21558 22.5987C3.17982 22.5906 3.14428 22.5816 3.10895 22.5717C3.07363 22.5618 3.03857 22.5511 3.00377 22.5396C2.96897 22.5281 2.93446 22.5157 2.90025 22.5025C2.86604 22.4894 2.83217 22.4753 2.79863 22.4604C2.76509 22.4456 2.73193 22.43 2.69915 22.4135C2.66638 22.3971 2.63401 22.3799 2.60205 22.3619C2.5701 22.3439 2.5386 22.3252 2.50754 22.3057C2.47648 22.2862 2.44591 22.2659 2.41583 22.245C2.38576 22.224 2.35621 22.2023 2.32718 22.1799C2.29814 22.1575 2.26966 22.1344 2.24173 22.1107C2.21381 22.0869 2.18647 22.0625 2.15972 22.0374C2.13298 22.0123 2.10685 21.9866 2.08134 21.9603C2.05582 21.9339 2.03096 21.907 2.00675 21.8795C1.98253 21.8519 1.95899 21.8238 1.93613 21.7952C1.91327 21.7665 1.89111 21.7373 1.86965 21.7075C1.8482 21.6778 1.82747 21.6476 1.80747 21.6168C1.78747 21.5861 1.76821 21.5549 1.74972 21.5233C1.73122 21.4916 1.71349 21.4595 1.69653 21.427C1.67957 21.3945 1.66341 21.3616 1.64804 21.3283C1.63267 21.295 1.6181 21.2614 1.60435 21.2274C1.5906 21.1934 1.57767 21.1591 1.56557 21.1245C1.55347 21.0898 1.54221 21.055 1.53178 21.0198C1.52136 20.9847 1.51179 20.9493 1.50307 20.9136C1.49435 20.878 1.48649 20.8422 1.47949 20.8062C1.4725 20.7702 1.46637 20.7341 1.46111 20.6978C1.45586 20.6615 1.45147 20.6251 1.44797 20.5886C1.44446 20.5521 1.44184 20.5156 1.44009 20.4789C1.43835 20.4423 1.43748 20.4057 1.4375 20.369L1.4375 2.57273C1.43748 2.53606 1.43835 2.49942 1.44009 2.46279C1.44184 2.42616 1.44446 2.3896 1.44797 2.35311C1.45147 2.31661 1.45586 2.28021 1.46111 2.24392C1.46637 2.20762 1.4725 2.17148 1.47949 2.13549C1.48649 2.09949 1.49435 2.06369 1.50307 2.02807C1.51179 1.99245 1.52136 1.95707 1.53178 1.92191C1.54221 1.88676 1.55347 1.85187 1.56557 1.81726C1.57767 1.78264 1.5906 1.74834 1.60435 1.71435C1.61811 1.68036 1.63267 1.64672 1.64804 1.61343C1.66341 1.58014 1.67958 1.54723 1.69653 1.51472C1.71349 1.48221 1.73122 1.45012 1.74972 1.41846C1.76822 1.3868 1.78747 1.35561 1.80747 1.32487C1.82747 1.29414 1.8482 1.26391 1.86966 1.23417C1.89111 1.20443 1.91327 1.17523 1.93613 1.14656C1.959 1.11789 1.98253 1.08979 2.00675 1.06226C2.03096 1.03472 2.05582 1.00778 2.08134 0.981442C2.10685 0.955102 2.13298 0.929393 2.15972 0.904311C2.18647 0.879229 2.21381 0.854805 2.24173 0.831039C2.26966 0.807273 2.29814 0.784192 2.32718 0.761797C2.35621 0.739401 2.38577 0.717717 2.41585 0.696745C2.44592 0.675773 2.47648 0.655536 2.50754 0.636033C2.5386 0.61653 2.5701 0.597787 2.60205 0.579802C2.63401 0.561818 2.66638 0.544611 2.69915 0.528183C2.73193 0.511755 2.76509 0.496125 2.79863 0.481293C2.83217 0.466462 2.86604 0.452445 2.90025 0.439244C2.93446 0.426043 2.96897 0.413672 3.00377 0.402132C3.03858 0.39059 3.07364 0.379893 3.10895 0.37004C3.14428 0.360187 3.17982 0.351189 3.21558 0.343046C3.25132 0.334903 3.28724 0.327625 3.32334 0.321212C3.35946 0.314799 3.3957 0.309257 3.43205 0.304586C3.46842 0.299917 3.50489 0.296126 3.54144 0.293212C3.57799 0.290297 3.61459 0.288262 3.65125 0.287109L19.3487 0.287109C19.3861 0.287109 19.4235 0.288027 19.4609 0.289863C19.4982 0.291697 19.5356 0.294448 19.5728 0.298115C19.61 0.301782 19.6471 0.30636 19.6841 0.311848C19.7211 0.317336 19.758 0.323729 19.7946 0.331027C19.8313 0.338324 19.8678 0.346517 19.9041 0.355606C19.9404 0.364696 19.9764 0.37467 20.0122 0.385529C20.048 0.396386 20.0835 0.408116 20.1188 0.420718C20.154 0.433319 20.1889 0.446777 20.2234 0.461092C20.258 0.475407 20.2922 0.490561 20.326 0.506553C20.3598 0.522547 20.3932 0.539359 20.4262 0.556993C20.4592 0.574627 20.4917 0.593059 20.5238 0.612288C20.5559 0.631519 20.5875 0.651525 20.6186 0.672308C20.6497 0.693089 20.6803 0.71462 20.7103 0.736903C20.7403 0.759187 20.7698 0.782193 20.7987 0.805923C20.8276 0.829653 20.856 0.854077 20.8837 0.879198C20.9114 0.904318 20.9385 0.930103 20.9649 0.956553C20.9914 0.983003 21.0171 1.01009 21.0423 1.0378C21.0674 1.06552 21.0918 1.09383 21.1156 1.12275C21.1393 1.15166 21.1623 1.18114 21.1846 1.21119C21.2069 1.24123 21.2284 1.27181 21.2492 1.30291C21.2699 1.33401 21.29 1.3656 21.3092 1.39769C21.3284 1.42977 21.3469 1.46231 21.3645 1.4953C21.3821 1.52829 21.3989 1.56169 21.4149 1.5955C21.4309 1.62932 21.4461 1.6635 21.4604 1.69806C21.4747 1.73262 21.4882 1.76751 21.5008 1.80273C21.5134 1.83795 21.5251 1.87346 21.536 1.90925C21.5468 1.94505 21.5568 1.98109 21.5659 2.01737C21.575 2.05366 21.5832 2.09014 21.5905 2.12683C21.5978 2.16352 21.6041 2.20036 21.6096 2.23736C21.6151 2.27437 21.6197 2.31148 21.6234 2.34871C21.627 2.38593 21.6298 2.42323 21.6316 2.46059C21.6335 2.49795 21.6344 2.53534 21.6344 2.57273L21.6344 20.369C21.6344 20.4064 21.6335 20.4438 21.6316 20.4811C21.6298 20.5185 21.627 20.5558 21.6234 20.593C21.6197 20.6302 21.6151 20.6674 21.6096 20.7043C21.6041 20.7413 21.5978 20.7782 21.5905 20.8149C21.5832 20.8516 21.575 20.8881 21.5659 20.9244C21.5568 20.9606 21.5468 20.9967 21.536 21.0325C21.5251 21.0683 21.5134 21.1038 21.5008 21.139C21.4882 21.1742 21.4747 21.2091 21.4604 21.2437C21.4461 21.2782 21.4309 21.3124 21.4149 21.3462C21.3989 21.38 21.3821 21.4134 21.3645 21.4464C21.3469 21.4794 21.3284 21.5119 21.3092 21.544C21.29 21.5761 21.2699 21.6077 21.2492 21.6388C21.2284 21.6699 21.2069 21.7005 21.1846 21.7305C21.1623 21.7606 21.1393 21.7901 21.1156 21.819C21.0918 21.8479 21.0674 21.8762 21.0423 21.9039C21.0171 21.9316 20.9914 21.9587 20.9649 21.9852C20.9385 22.0116 20.9114 22.0374 20.8837 22.0625C20.856 22.0877 20.8276 22.1121 20.7987 22.1358C20.7698 22.1595 20.7403 22.1825 20.7103 22.2048C20.6803 22.2271 20.6497 22.2486 20.6186 22.2694C20.5875 22.2902 20.5559 22.3102 20.5238 22.3294C20.4917 22.3487 20.4592 22.3671 20.4262 22.3847C20.3932 22.4023 20.3598 22.4192 20.326 22.4352C20.2922 22.4512 20.258 22.4663 20.2234 22.4805C20.1889 22.4949 20.154 22.5084 20.1188 22.521C20.0835 22.5335 20.048 22.5453 20.0122 22.5562C19.9764 22.567 19.9404 22.577 19.9041 22.5861C19.8678 22.5952 19.8313 22.6034 19.7946 22.6106C19.758 22.6179 19.7211 22.6244 19.6841 22.6299C19.6471 22.6354 19.61 22.64 19.5728 22.6436C19.5356 22.6472 19.4982 22.65 19.4609 22.6519C19.4235 22.6537 19.3861 22.6546 19.3487 22.6546ZM3.65125 1.98336C3.64161 1.98336 3.63196 1.9836 3.62232 1.98407C3.61269 1.98454 3.60308 1.98525 3.59348 1.9862C3.58388 1.98714 3.57431 1.98832 3.56478 1.98974C3.55524 1.99115 3.54574 1.9928 3.53627 1.99468C3.52681 1.99657 3.5174 1.99868 3.50804 2.00102C3.49868 2.00337 3.48939 2.00594 3.48017 2.00874C3.47094 2.01154 3.46179 2.01456 3.4527 2.01781C3.44361 2.02106 3.43461 2.02453 3.4257 2.02822C3.41679 2.03191 3.40798 2.03582 3.39926 2.03995C3.39055 2.04407 3.38194 2.0484 3.37343 2.05295C3.36491 2.0575 3.35652 2.06225 3.34825 2.06721C3.33997 2.07217 3.33183 2.07733 3.32381 2.08269C3.31579 2.08805 3.30791 2.0936 3.30016 2.09934C3.29241 2.10509 3.28481 2.11102 3.27737 2.11714C3.26991 2.12326 3.2626 2.12956 3.25544 2.13604C3.2483 2.14251 3.24132 2.14916 3.23451 2.15598C3.22768 2.1628 3.22103 2.16979 3.21454 2.17693C3.20807 2.18408 3.20178 2.19138 3.19565 2.19884C3.18954 2.2063 3.18361 2.2139 3.17786 2.22165C3.17211 2.22939 3.16656 2.23727 3.1612 2.24529C3.15584 2.25331 3.15068 2.26146 3.14572 2.26974C3.14077 2.278 3.13601 2.2864 3.13146 2.29491C3.12692 2.30342 3.12259 2.31203 3.11845 2.32074C3.11434 2.32946 3.11043 2.33827 3.10673 2.34718C3.10305 2.35611 3.09958 2.36511 3.09633 2.37418C3.09308 2.38327 3.09006 2.39242 3.08726 2.40165C3.08446 2.41087 3.08188 2.42016 3.07953 2.42952C3.07719 2.43888 3.07508 2.44829 3.0732 2.45776C3.07132 2.46722 3.06968 2.47672 3.06825 2.48626C3.06683 2.4958 3.06565 2.50537 3.0647 2.51496C3.06376 2.52456 3.06306 2.53417 3.06259 2.5438C3.06212 2.55344 3.06187 2.5631 3.06187 2.57273L3.06187 20.369C3.06187 20.3786 3.06211 20.3881 3.06257 20.3976C3.06305 20.4072 3.06376 20.4167 3.0647 20.4263C3.06566 20.4358 3.06685 20.4452 3.06828 20.4547C3.0697 20.4642 3.07135 20.4736 3.07324 20.483C3.07514 20.4923 3.07727 20.5016 3.07962 20.5109C3.08197 20.5202 3.08456 20.5294 3.08739 20.5385C3.0902 20.5477 3.09325 20.5567 3.09651 20.5657C3.09978 20.5747 3.10326 20.5836 3.10698 20.5924C3.11069 20.6012 3.11462 20.6099 3.11877 20.6185C3.12292 20.6271 3.12727 20.6357 3.13184 20.6441C3.13641 20.6525 3.14118 20.6608 3.14617 20.6689C3.15116 20.6771 3.15635 20.6851 3.16174 20.693C3.16711 20.7009 3.17269 20.7087 3.17847 20.7163C3.18424 20.7239 3.19019 20.7314 3.19635 20.7387C3.20249 20.746 3.20881 20.7532 3.21533 20.7602C3.22183 20.7672 3.2285 20.7741 3.23534 20.7807C3.24218 20.7874 3.24919 20.7939 3.25636 20.8003C3.26352 20.8066 3.27084 20.8127 3.27833 20.8187C3.2858 20.8246 3.29342 20.8304 3.30117 20.836C3.30895 20.8416 3.31684 20.847 3.32487 20.8522C3.33291 20.8574 3.34107 20.8623 3.34935 20.8671C3.35763 20.8719 3.36603 20.8765 3.37453 20.8808C3.38304 20.8852 3.39165 20.8893 3.40036 20.8933C3.40908 20.8972 3.41789 20.9009 3.4268 20.9044C3.43569 20.9079 3.44467 20.9112 3.45373 20.9142C3.4628 20.9173 3.47194 20.9201 3.48113 20.9227C3.49034 20.9253 3.49961 20.9276 3.50894 20.9297C3.51825 20.9319 3.52762 20.9338 3.53704 20.9354C3.54645 20.9371 3.55591 20.9385 3.5654 20.9397C3.57488 20.9409 3.58439 20.9419 3.59393 20.9426C3.60347 20.9433 3.61301 20.9437 3.62257 20.944C3.63214 20.9442 3.6417 20.9442 3.65125 20.944L19.3487 20.944C19.3583 20.9442 19.3679 20.9442 19.3774 20.944C19.387 20.9437 19.3965 20.9433 19.4061 20.9426C19.4156 20.9419 19.4251 20.9409 19.4346 20.9397C19.4441 20.9385 19.4536 20.9371 19.463 20.9354C19.4724 20.9338 19.4817 20.9319 19.4911 20.9297C19.5004 20.9276 19.5097 20.9253 19.5189 20.9227C19.5281 20.9201 19.5372 20.9173 19.5463 20.9142C19.5553 20.9112 19.5643 20.9079 19.5732 20.9044C19.5821 20.9009 19.5909 20.8972 19.5996 20.8933C19.6084 20.8893 19.617 20.8852 19.6255 20.8808C19.634 20.8765 19.6424 20.8719 19.6506 20.8671C19.6589 20.8623 19.6671 20.8574 19.6751 20.8522C19.6831 20.847 19.6911 20.8416 19.6988 20.836C19.7066 20.8304 19.7142 20.8246 19.7217 20.8187C19.7291 20.8127 19.7365 20.8066 19.7436 20.8002C19.7508 20.7939 19.7578 20.7874 19.7647 20.7807C19.7715 20.7741 19.7782 20.7672 19.7847 20.7602C19.7912 20.7532 19.7975 20.746 19.8037 20.7387C19.8098 20.7314 19.8158 20.7239 19.8215 20.7163C19.8273 20.7087 19.8329 20.7009 19.8383 20.693C19.8437 20.6851 19.8488 20.6771 19.8538 20.6689C19.8588 20.6608 19.8636 20.6525 19.8682 20.6441C19.8727 20.6357 19.8771 20.6271 19.8812 20.6185C19.8854 20.6099 19.8893 20.6012 19.893 20.5924C19.8967 20.5836 19.9002 20.5747 19.9035 20.5657C19.9067 20.5567 19.9098 20.5477 19.9126 20.5385C19.9154 20.5294 19.918 20.5202 19.9204 20.5109C19.9227 20.5016 19.9249 20.4923 19.9268 20.483C19.9286 20.4736 19.9303 20.4642 19.9317 20.4547C19.9331 20.4452 19.9343 20.4358 19.9353 20.4263C19.9362 20.4167 19.9369 20.4072 19.9374 20.3976C19.9379 20.3881 19.9381 20.3786 19.9381 20.369L19.9381 2.57273C19.9381 2.5631 19.9379 2.55344 19.9374 2.5438C19.9369 2.53417 19.9362 2.52456 19.9353 2.51496C19.9344 2.50537 19.9332 2.4958 19.9317 2.48626C19.9303 2.47672 19.9287 2.46722 19.9268 2.45776C19.9249 2.44829 19.9228 2.43888 19.9205 2.42952C19.9181 2.42016 19.9156 2.41087 19.9127 2.40165C19.9099 2.39242 19.9069 2.38327 19.9037 2.37418C19.9004 2.36509 19.897 2.35609 19.8932 2.34718C19.8896 2.33827 19.8857 2.32946 19.8815 2.32074C19.8774 2.31203 19.8731 2.30342 19.8685 2.29491C19.864 2.2864 19.8592 2.278 19.8543 2.26974C19.8493 2.26146 19.8441 2.25331 19.8388 2.24529C19.8334 2.23727 19.8279 2.22939 19.8221 2.22164C19.8164 2.2139 19.8105 2.2063 19.8043 2.19884C19.7982 2.19138 19.7919 2.18408 19.7855 2.17693C19.779 2.16979 19.7723 2.1628 19.7655 2.15598C19.7587 2.14916 19.7517 2.14251 19.7446 2.13604C19.7374 2.12956 19.7301 2.12326 19.7226 2.11714C19.7152 2.11102 19.7076 2.10509 19.6998 2.09934C19.6921 2.0936 19.6842 2.08805 19.6762 2.08269C19.6682 2.07733 19.66 2.07217 19.6517 2.06721C19.6435 2.06225 19.6351 2.0575 19.6266 2.05295C19.6181 2.0484 19.6095 2.04407 19.6007 2.03995C19.592 2.03582 19.5832 2.03191 19.5743 2.02822C19.5654 2.02453 19.5564 2.02106 19.5473 2.01781C19.5382 2.01456 19.5291 2.01154 19.5198 2.00874C19.5106 2.00594 19.5013 2.00337 19.492 2.00102C19.4826 1.99868 19.4732 1.99657 19.4637 1.99468C19.4543 1.9928 19.4448 1.99115 19.4352 1.98974C19.4257 1.98832 19.4161 1.98714 19.4065 1.9862C19.3969 1.98525 19.3873 1.98454 19.3777 1.98407C19.368 1.9836 19.3584 1.98336 19.3487 1.98336L3.65125 1.98336Z"   fill="#126BAE" >
</path>
<path d="M16.8475 6.19598L5.89378 6.19598C5.88093 6.19431 5.86813 6.19236 5.85537 6.19011C5.84261 6.18787 5.82992 6.18533 5.81728 6.1825C5.80463 6.17969 5.79205 6.17659 5.77954 6.1732C5.76704 6.16982 5.75462 6.16615 5.74228 6.16222C5.72994 6.15826 5.7177 6.15404 5.70556 6.14955C5.6934 6.14506 5.68135 6.14029 5.66942 6.13524C5.65748 6.13021 5.64567 6.12491 5.63397 6.11934C5.62228 6.11377 5.61072 6.10794 5.59929 6.10184C5.58785 6.09575 5.57656 6.0894 5.56542 6.0828C5.55428 6.07621 5.54329 6.06936 5.53245 6.06227C5.52161 6.05517 5.51093 6.04783 5.50042 6.04025C5.48992 6.03268 5.4796 6.02487 5.46945 6.01683C5.45928 6.00879 5.44931 6.00052 5.43953 5.99203C5.42975 5.98354 5.42017 5.97483 5.41078 5.96591C5.40137 5.95699 5.39219 5.94785 5.38322 5.93851C5.37424 5.92918 5.36547 5.91965 5.35692 5.90991C5.34837 5.90018 5.34004 5.89026 5.33194 5.88015C5.32384 5.87005 5.31597 5.85976 5.30833 5.84929C5.3007 5.83883 5.29329 5.82819 5.28612 5.8174C5.27896 5.8066 5.27205 5.79566 5.26539 5.78456C5.25873 5.77345 5.25231 5.7622 5.24614 5.7508C5.23999 5.73941 5.23409 5.72787 5.22844 5.71621C5.22281 5.70455 5.21744 5.69276 5.21231 5.68086C5.20721 5.66895 5.20237 5.65694 5.1978 5.64483C5.19324 5.6327 5.18895 5.62048 5.18493 5.60817C5.18091 5.59585 5.17716 5.58345 5.1737 5.57098C5.17025 5.55849 5.16707 5.54593 5.16418 5.53331C5.16129 5.52067 5.15869 5.50798 5.15636 5.49524C5.15404 5.4825 5.15201 5.46971 5.15025 5.45688C5.14852 5.44405 5.14707 5.43117 5.1459 5.41827C5.14473 5.40537 5.14385 5.39245 5.14327 5.3795C5.14269 5.36656 5.14239 5.35362 5.14239 5.34066C5.14239 5.32771 5.14269 5.31477 5.14327 5.30183C5.14385 5.28888 5.14473 5.27595 5.1459 5.26306C5.14707 5.25015 5.14852 5.23728 5.15025 5.22445C5.15201 5.21162 5.15404 5.19883 5.15636 5.18609C5.15869 5.17335 5.16129 5.16066 5.16418 5.14802C5.16707 5.13539 5.17025 5.12284 5.1737 5.11035C5.17716 5.09788 5.18091 5.08548 5.18493 5.07315C5.18895 5.06085 5.19324 5.04863 5.1978 5.0365C5.20237 5.02438 5.20721 5.01237 5.21231 5.00047C5.21744 4.98857 5.22281 4.97678 5.22844 4.96512C5.23409 4.95345 5.23999 4.94192 5.24614 4.93053C5.25231 4.91913 5.25873 4.90788 5.26539 4.89677C5.27205 4.88567 5.27896 4.87473 5.28612 4.86393C5.29329 4.85313 5.3007 4.8425 5.30833 4.83204C5.31597 4.82157 5.32384 4.81128 5.33194 4.80117C5.34004 4.79107 5.34837 4.78115 5.35692 4.77141C5.36547 4.7617 5.37424 4.75216 5.38322 4.74282C5.39219 4.73348 5.40137 4.72434 5.41078 4.71542C5.42017 4.70651 5.42975 4.6978 5.43953 4.6893C5.44931 4.68081 5.45927 4.67254 5.46942 4.6645C5.47959 4.65646 5.48992 4.64865 5.50042 4.64107C5.51093 4.6335 5.52161 4.62616 5.53245 4.61906C5.54329 4.61196 5.55428 4.60512 5.56542 4.59853C5.57656 4.59193 5.58785 4.58558 5.59929 4.57949C5.61072 4.57339 5.62228 4.56756 5.63397 4.56199C5.64567 4.55642 5.65748 4.55112 5.66942 4.54609C5.68135 4.54104 5.6934 4.53627 5.70556 4.53178C5.7177 4.52729 5.72994 4.52306 5.74228 4.51911C5.75462 4.51517 5.76704 4.51151 5.77954 4.50813C5.79205 4.50474 5.80463 4.50164 5.81728 4.49883C5.82992 4.496 5.84261 4.49346 5.85537 4.49121C5.86813 4.48897 5.88093 4.48701 5.89378 4.48535L16.8475 4.48535C16.8604 4.48701 16.8732 4.48897 16.8859 4.49121C16.8987 4.49346 16.9114 4.496 16.924 4.49883C16.9367 4.50164 16.9493 4.50474 16.9618 4.50813C16.9743 4.51151 16.9867 4.51517 16.999 4.51911C17.0114 4.52306 17.0236 4.52729 17.0358 4.53178C17.0479 4.53627 17.0599 4.54104 17.0719 4.54609C17.0838 4.55112 17.0956 4.55642 17.1073 4.56199C17.119 4.56756 17.1306 4.57339 17.142 4.57949C17.1534 4.58558 17.1647 4.59193 17.1759 4.59853C17.187 4.60512 17.198 4.61196 17.2089 4.61906C17.2197 4.62616 17.2304 4.6335 17.2409 4.64107C17.2514 4.64865 17.2617 4.65646 17.2719 4.6645C17.282 4.67254 17.292 4.68081 17.3018 4.6893C17.3116 4.6978 17.3211 4.70651 17.3305 4.71542C17.3399 4.72434 17.3491 4.73348 17.3581 4.74282C17.3671 4.75216 17.3758 4.7617 17.3844 4.77141C17.3929 4.78115 17.4013 4.79107 17.4094 4.80117C17.4175 4.81128 17.4253 4.82157 17.433 4.83204C17.4406 4.8425 17.448 4.85313 17.4552 4.86393C17.4623 4.87473 17.4692 4.88567 17.4759 4.89677C17.4826 4.90788 17.489 4.91913 17.4951 4.93053C17.5013 4.94192 17.5072 4.95345 17.5128 4.96512C17.5185 4.97678 17.5239 4.98857 17.529 5.00047C17.5341 5.01237 17.5389 5.02438 17.5435 5.0365C17.5481 5.04863 17.5524 5.06085 17.5564 5.07315C17.5604 5.08548 17.5641 5.09788 17.5676 5.11035C17.571 5.12284 17.5742 5.13539 17.5771 5.14802C17.58 5.16066 17.5826 5.17335 17.5849 5.18609C17.5873 5.19883 17.5893 5.21162 17.5911 5.22445C17.5928 5.23728 17.5942 5.25015 17.5954 5.26306C17.5966 5.27595 17.5975 5.28888 17.598 5.30183C17.5986 5.31477 17.5989 5.32771 17.5989 5.34066C17.5989 5.35362 17.5986 5.36656 17.598 5.3795C17.5975 5.39245 17.5966 5.40537 17.5954 5.41827C17.5942 5.43117 17.5928 5.44405 17.5911 5.45688C17.5893 5.46971 17.5873 5.4825 17.5849 5.49524C17.5826 5.50798 17.58 5.52067 17.5771 5.53331C17.5742 5.54593 17.571 5.55849 17.5676 5.57098C17.5641 5.58345 17.5604 5.59585 17.5564 5.60817C17.5524 5.62048 17.5481 5.6327 17.5435 5.64483C17.5389 5.65694 17.5341 5.66895 17.529 5.68086C17.5239 5.69276 17.5185 5.70455 17.5129 5.71621C17.5072 5.72787 17.5013 5.73941 17.4951 5.7508C17.489 5.7622 17.4826 5.77345 17.4759 5.78456C17.4692 5.79566 17.4623 5.8066 17.4552 5.8174C17.448 5.82819 17.4406 5.83883 17.433 5.84929C17.4253 5.85976 17.4175 5.87005 17.4094 5.88015C17.4013 5.89026 17.3929 5.90018 17.3844 5.90991C17.3758 5.91963 17.3671 5.92916 17.3581 5.93851C17.3491 5.94785 17.3399 5.95698 17.3305 5.96589C17.3211 5.97481 17.3116 5.98352 17.3018 5.99201C17.292 6.00051 17.282 6.00879 17.2719 6.01683C17.2617 6.02487 17.2514 6.03268 17.2409 6.04025C17.2304 6.04783 17.2197 6.05517 17.2089 6.06227C17.198 6.06935 17.187 6.07619 17.1759 6.0828C17.1647 6.0894 17.1534 6.09575 17.142 6.10184C17.1306 6.10794 17.119 6.11377 17.1073 6.11934C17.0956 6.12491 17.0838 6.13021 17.0719 6.13524C17.0599 6.14029 17.0479 6.14506 17.0358 6.14955C17.0236 6.15404 17.0114 6.15826 16.999 6.16222C16.9867 6.16615 16.9743 6.16982 16.9618 6.1732C16.9493 6.17659 16.9367 6.17969 16.924 6.1825C16.9114 6.18533 16.8987 6.18787 16.8859 6.19011C16.8732 6.19236 16.8604 6.19431 16.8475 6.19598ZM12.9375 9.1716L5.89378 9.1716C5.8799 9.1716 5.86602 9.17126 5.85216 9.17059C5.83829 9.16989 5.82446 9.16888 5.81065 9.16751C5.79683 9.16614 5.78305 9.16446 5.76932 9.16241C5.75561 9.16037 5.74194 9.15801 5.72831 9.15529C5.7147 9.1526 5.70116 9.14957 5.6877 9.14618C5.67424 9.14281 5.66087 9.1391 5.64758 9.13508C5.6343 9.13106 5.62113 9.1267 5.60805 9.12203C5.59498 9.11734 5.58204 9.11235 5.56922 9.10705C5.55639 9.10173 5.5437 9.09611 5.53115 9.09018C5.51861 9.08423 5.50622 9.07798 5.49397 9.07145C5.48174 9.06491 5.46967 9.05806 5.45775 9.05094C5.44584 9.0438 5.43412 9.03636 5.42259 9.02866C5.41105 9.02096 5.3997 9.01296 5.38854 9.00469C5.3774 8.99643 5.36646 8.98789 5.35573 8.97909C5.34501 8.97028 5.3345 8.96121 5.32421 8.95189C5.31393 8.94257 5.30388 8.933 5.29407 8.92318C5.28425 8.91337 5.27468 8.90333 5.26537 8.89304C5.25604 8.88275 5.24697 8.87224 5.23817 8.86153C5.22936 8.85079 5.22083 8.83985 5.21256 8.82871C5.2043 8.81755 5.19631 8.80621 5.1886 8.79466C5.18088 8.78314 5.17346 8.77141 5.16631 8.75949C5.15919 8.74758 5.15235 8.73552 5.14581 8.72328C5.13926 8.71104 5.13302 8.69864 5.12708 8.68609C5.12115 8.67353 5.11552 8.66086 5.11021 8.64804C5.10491 8.63521 5.09991 8.62227 5.09523 8.6092C5.09055 8.59613 5.0862 8.58294 5.08218 8.56967C5.07815 8.5564 5.07445 8.54301 5.07108 8.52956C5.0677 8.5161 5.06466 8.50256 5.06196 8.48895C5.05925 8.47531 5.05688 8.46166 5.05484 8.44793C5.0528 8.43421 5.0511 8.42042 5.04974 8.4066C5.04838 8.39279 5.04735 8.37895 5.04667 8.3651C5.04599 8.35124 5.04565 8.33736 5.04565 8.32348C5.04588 8.30966 5.04644 8.29585 5.04734 8.28206C5.04822 8.26829 5.04944 8.25452 5.051 8.2408C5.05256 8.22707 5.05444 8.21337 5.05664 8.19974C5.05885 8.18611 5.06139 8.17252 5.06425 8.15899C5.06713 8.14547 5.07032 8.13204 5.07382 8.11868C5.07732 8.10531 5.08115 8.09204 5.0853 8.07885C5.08945 8.06567 5.09391 8.0526 5.09868 8.03964C5.10346 8.02668 5.10854 8.01383 5.11394 8.00109C5.11934 7.98836 5.12504 7.97578 5.13103 7.96334C5.13703 7.95089 5.14333 7.93859 5.14992 7.92643C5.15651 7.91428 5.16338 7.90231 5.17054 7.8905C5.17771 7.87868 5.18516 7.86705 5.19289 7.85559C5.20061 7.84414 5.20861 7.83286 5.21687 7.82179C5.22514 7.81072 5.23367 7.79987 5.24246 7.7892C5.25123 7.77853 5.26027 7.76809 5.26957 7.75784C5.27885 7.74762 5.28838 7.73763 5.29816 7.72786C5.30792 7.71809 5.31793 7.70854 5.32817 7.69926C5.33839 7.68997 5.34884 7.68094 5.3595 7.67215C5.37016 7.66337 5.38103 7.65484 5.39209 7.64657C5.40317 7.63831 5.41444 7.63031 5.4259 7.62258C5.43735 7.61486 5.44899 7.6074 5.4608 7.60023C5.47261 7.59307 5.4846 7.5862 5.49676 7.57962C5.5089 7.57303 5.5212 7.56672 5.53364 7.56073C5.54608 7.55473 5.55867 7.54905 5.5714 7.54363C5.58413 7.53824 5.59697 7.53317 5.60994 7.52838C5.62291 7.5236 5.63598 7.51915 5.64916 7.515C5.66233 7.51084 5.67561 7.50702 5.68898 7.50352C5.70234 7.50001 5.71578 7.49682 5.7293 7.49395C5.74282 7.4911 5.7564 7.48856 5.77004 7.48633C5.78368 7.48413 5.79737 7.48225 5.8111 7.4807C5.82482 7.47915 5.83857 7.47791 5.85236 7.47704C5.86615 7.47614 5.87996 7.47558 5.89378 7.47535L12.9375 7.47535C12.9514 7.47535 12.9653 7.47569 12.9791 7.47636C12.993 7.47706 13.0068 7.47807 13.0207 7.47944C13.0345 7.48081 13.0483 7.48249 13.062 7.48454C13.0757 7.48658 13.0894 7.48894 13.103 7.49166C13.1166 7.49435 13.1302 7.49739 13.1436 7.50078C13.1571 7.50415 13.1704 7.50785 13.1837 7.51187C13.197 7.51589 13.2102 7.52025 13.2233 7.52492C13.2363 7.52962 13.2493 7.5346 13.2621 7.5399C13.2749 7.54523 13.2876 7.55084 13.3001 7.55677C13.3127 7.56272 13.3251 7.56897 13.3373 7.5755C13.3496 7.58204 13.3616 7.58889 13.3735 7.59601C13.3855 7.60315 13.3972 7.61059 13.4087 7.61829C13.4203 7.626 13.4316 7.63399 13.4428 7.64226C13.4539 7.65052 13.4648 7.65906 13.4756 7.66786C13.4863 7.67667 13.4968 7.68574 13.5071 7.69506C13.5174 7.70439 13.5274 7.71395 13.5372 7.72377C13.5471 7.73358 13.5566 7.74362 13.5659 7.75391C13.5753 7.7642 13.5843 7.77471 13.5931 7.78542C13.6019 7.79616 13.6105 7.8071 13.6187 7.81824C13.627 7.8294 13.635 7.84075 13.6427 7.85229C13.6504 7.86381 13.6579 7.87554 13.665 7.88744C13.6721 7.89937 13.679 7.91143 13.6855 7.92367C13.692 7.93591 13.6983 7.94831 13.7042 7.96084C13.7102 7.9734 13.7158 7.98609 13.7211 7.99892C13.7264 8.01174 13.7314 8.02468 13.7361 8.03775C13.7408 8.05082 13.7451 8.06401 13.7491 8.07728C13.7532 8.09056 13.7569 8.10394 13.7602 8.1174C13.7636 8.13085 13.7667 8.1444 13.7693 8.15801C13.7721 8.17164 13.7744 8.1853 13.7765 8.19902C13.7785 8.21274 13.7802 8.22653 13.7816 8.24035C13.7829 8.25416 13.7839 8.268 13.7846 8.28186C13.7853 8.29572 13.7857 8.3096 13.7857 8.32348C13.7859 8.33743 13.7858 8.35135 13.7853 8.3653C13.7849 8.37925 13.7841 8.39315 13.7829 8.40705C13.7818 8.42096 13.7803 8.43484 13.7784 8.44865C13.7766 8.46247 13.7744 8.47623 13.7718 8.48996C13.7693 8.50368 13.7664 8.51731 13.7631 8.53088C13.7599 8.54445 13.7564 8.55792 13.7525 8.57131C13.7486 8.5847 13.7443 8.59797 13.7397 8.61116C13.7352 8.62434 13.7303 8.63739 13.7251 8.65033C13.7198 8.66327 13.7143 8.67607 13.7084 8.68871C13.7026 8.70136 13.6964 8.71387 13.6899 8.7262C13.6834 8.73853 13.6766 8.75071 13.6695 8.76272C13.6624 8.77472 13.655 8.78653 13.6473 8.79817C13.6396 8.8098 13.6316 8.82123 13.6233 8.83246C13.615 8.84369 13.6065 8.8547 13.5977 8.8655C13.5889 8.87631 13.5798 8.88686 13.5704 8.89722C13.561 8.90757 13.5514 8.91766 13.5416 8.92752C13.5317 8.93738 13.5216 8.94699 13.5113 8.95636C13.5009 8.96572 13.4904 8.9748 13.4796 8.98363C13.4688 8.99245 13.4577 9.00099 13.4465 9.00928C13.4353 9.01754 13.4239 9.02552 13.4122 9.03322C13.4006 9.04092 13.3888 9.04831 13.3768 9.05543C13.3648 9.06253 13.3526 9.06934 13.3403 9.07583C13.3279 9.08232 13.3154 9.08852 13.3028 9.09438C13.2901 9.10024 13.2773 9.10577 13.2644 9.111C13.2514 9.11624 13.2384 9.12113 13.2252 9.12569C13.212 9.13027 13.1987 9.13452 13.1854 9.1384C13.172 9.14231 13.1585 9.14588 13.1449 9.1491C13.1314 9.15233 13.1177 9.15523 13.104 9.15777C13.0903 9.1603 13.0765 9.1625 13.0627 9.16435C13.0489 9.16621 13.035 9.16772 13.0211 9.16886C13.0072 9.17001 12.9933 9.17081 12.9794 9.17129C12.9654 9.17174 12.9515 9.17185 12.9375 9.1716ZM9.1569 11.9891L5.89378 11.9891C5.88201 11.9891 5.87026 11.9888 5.85852 11.9882C5.84676 11.9877 5.83503 11.9868 5.82332 11.9856C5.81162 11.9845 5.79996 11.9831 5.78833 11.9813C5.77669 11.9796 5.7651 11.9776 5.75356 11.9753C5.74203 11.973 5.73056 11.9704 5.71915 11.9676C5.70774 11.9647 5.6964 11.9616 5.68514 11.9582C5.67388 11.9547 5.66272 11.9511 5.65165 11.9471C5.64057 11.9431 5.62959 11.9389 5.61872 11.9344C5.60785 11.9299 5.5971 11.9251 5.58647 11.9201C5.57584 11.9151 5.56533 11.9098 5.55496 11.9042C5.54458 11.8987 5.53435 11.8929 5.52427 11.8868C5.51418 11.8808 5.50425 11.8745 5.49447 11.868C5.48469 11.8614 5.47508 11.8547 5.46563 11.8477C5.45618 11.8407 5.4469 11.8334 5.4378 11.8259C5.42871 11.8185 5.41981 11.8108 5.41109 11.8029C5.40238 11.795 5.39387 11.7869 5.38556 11.7786C5.37723 11.7703 5.36912 11.7618 5.36123 11.753C5.35332 11.7443 5.34564 11.7354 5.33819 11.7263C5.33071 11.7172 5.32347 11.708 5.31647 11.6985C5.30946 11.689 5.30269 11.6794 5.29616 11.6697C5.28963 11.6599 5.28334 11.6499 5.27729 11.6399C5.27125 11.6298 5.26544 11.6195 5.25989 11.6092C5.25435 11.5988 5.24906 11.5883 5.24403 11.5777C5.239 11.567 5.23424 11.5563 5.22974 11.5454C5.22524 11.5345 5.22101 11.5236 5.21705 11.5125C5.21309 11.5014 5.20939 11.4902 5.20598 11.479C5.20257 11.4677 5.19943 11.4564 5.19657 11.445C5.19371 11.4336 5.19113 11.4221 5.18884 11.4106C5.18655 11.399 5.18454 11.3874 5.1828 11.3758C5.18108 11.3642 5.17964 11.3525 5.17849 11.3408C5.17734 11.3291 5.17647 11.3174 5.17591 11.3056C5.17532 11.2939 5.17503 11.2821 5.17503 11.2704C5.17525 11.2586 5.17576 11.247 5.17656 11.2353C5.17734 11.2236 5.1784 11.212 5.17975 11.2003C5.18109 11.1887 5.18272 11.1771 5.18462 11.1656C5.18652 11.154 5.18869 11.1425 5.19113 11.1311C5.19359 11.1197 5.19631 11.1083 5.19931 11.097C5.2023 11.0857 5.20557 11.0744 5.2091 11.0633C5.21262 11.0521 5.21642 11.0411 5.22049 11.0301C5.22455 11.0191 5.22887 11.0082 5.23345 10.9975C5.23803 10.9867 5.24287 10.976 5.24796 10.9655C5.25305 10.955 5.2584 10.9446 5.264 10.9343C5.26958 10.924 5.27541 10.9139 5.28149 10.9039C5.28757 10.8939 5.29389 10.884 5.30043 10.8743C5.30697 10.8646 5.31375 10.8551 5.32076 10.8457C5.32776 10.8364 5.33499 10.8272 5.34243 10.8181C5.34987 10.8091 5.35753 10.8002 5.36541 10.7916C5.37327 10.7829 5.38134 10.7745 5.38962 10.7662C5.39789 10.7579 5.40635 10.7498 5.41502 10.742C5.42368 10.7341 5.43252 10.7264 5.44155 10.719C5.45058 10.7116 5.45978 10.7043 5.46916 10.6973C5.47853 10.6903 5.48806 10.6835 5.49775 10.677C5.50745 10.6705 5.5173 10.6642 5.52731 10.6581C5.53731 10.652 5.54745 10.6462 5.55772 10.6406C5.56801 10.635 5.57841 10.6296 5.58894 10.6245C5.59948 10.6194 5.61014 10.6146 5.6209 10.61C5.63167 10.6054 5.64254 10.6011 5.65351 10.5971C5.66449 10.593 5.67556 10.5892 5.68671 10.5857C5.69787 10.5821 5.7091 10.5789 5.7204 10.5759C5.73171 10.5729 5.74309 10.5702 5.75454 10.5677C5.76598 10.5653 5.77748 10.5631 5.78902 10.5612C5.80057 10.5593 5.81215 10.5577 5.82377 10.5563C5.83539 10.555 5.84704 10.5539 5.85872 10.5531C5.8704 10.5523 5.88208 10.5518 5.89378 10.5516L9.1569 10.5516C9.16867 10.5516 9.18042 10.5519 9.19217 10.5525C9.20391 10.553 9.21566 10.5539 9.22736 10.5551C9.23907 10.5562 9.25072 10.5576 9.26236 10.5594C9.27399 10.5611 9.28558 10.5631 9.29713 10.5654C9.30865 10.5677 9.32013 10.5703 9.33154 10.5731C9.34295 10.576 9.35429 10.5791 9.36554 10.5826C9.3768 10.586 9.38796 10.5897 9.39903 10.5936C9.41011 10.5976 9.42109 10.6018 9.43196 10.6063C9.44283 10.6108 9.45359 10.6156 9.46421 10.6206C9.47484 10.6256 9.48535 10.6309 9.49573 10.6365C9.50608 10.642 9.51632 10.6478 9.52641 10.6539C9.53649 10.6599 9.54644 10.6662 9.55622 10.6727C9.56598 10.6793 9.5756 10.686 9.58505 10.693C9.59451 10.7 9.60379 10.7073 9.61288 10.7148C9.62198 10.7222 9.63087 10.7299 9.63959 10.7378C9.6483 10.7457 9.65682 10.7538 9.66513 10.7621C9.67346 10.7704 9.68157 10.779 9.68945 10.7877C9.69736 10.7964 9.70504 10.8053 9.7125 10.8144C9.71998 10.8235 9.72721 10.8327 9.73422 10.8422C9.74123 10.8517 9.74799 10.8613 9.75452 10.871C9.76106 10.8808 9.76735 10.8908 9.77339 10.9008C9.77943 10.9109 9.78523 10.9212 9.79077 10.9315C9.79632 10.9419 9.80162 10.9524 9.80665 10.963C9.81166 10.9737 9.81643 10.9844 9.82094 10.9953C9.82545 11.0062 9.82968 11.0171 9.83363 11.0282C9.83761 11.0393 9.84129 11.0505 9.8447 11.0617C9.84812 11.073 9.85126 11.0843 9.85411 11.0957C9.85697 11.1071 9.85955 11.1186 9.86184 11.1301C9.86413 11.1417 9.86615 11.1533 9.86788 11.1649C9.86961 11.1765 9.87105 11.1882 9.8722 11.1999C9.87334 11.2116 9.87422 11.2233 9.87478 11.2351C9.87536 11.2468 9.87565 11.2586 9.87565 11.2704C9.87565 11.2821 9.87536 11.2939 9.87478 11.3056C9.87422 11.3174 9.87334 11.3291 9.8722 11.3408C9.87105 11.3525 9.86961 11.3642 9.86788 11.3758C9.86615 11.3874 9.86413 11.399 9.86184 11.4106C9.85955 11.4221 9.85697 11.4336 9.85411 11.445C9.85126 11.4564 9.84812 11.4677 9.8447 11.479C9.84129 11.4902 9.83761 11.5014 9.83363 11.5125C9.82968 11.5236 9.82545 11.5345 9.82094 11.5454C9.81643 11.5563 9.81166 11.567 9.80665 11.5777C9.80162 11.5883 9.79632 11.5988 9.79077 11.6092C9.78523 11.6195 9.77943 11.6298 9.77339 11.6399C9.76735 11.6499 9.76106 11.6599 9.75452 11.6697C9.74799 11.6794 9.74123 11.689 9.73422 11.6985C9.72721 11.708 9.71998 11.7172 9.7125 11.7263C9.70504 11.7354 9.69736 11.7443 9.68945 11.753C9.68157 11.7618 9.67346 11.7703 9.66513 11.7786C9.65682 11.7869 9.6483 11.795 9.63959 11.8029C9.63087 11.8108 9.62198 11.8185 9.61288 11.8259C9.60379 11.8334 9.59451 11.8407 9.58505 11.8477C9.5756 11.8547 9.56598 11.8614 9.55622 11.868C9.54644 11.8745 9.53649 11.8808 9.52641 11.8868C9.51632 11.8929 9.50608 11.8987 9.49573 11.9042C9.48535 11.9098 9.47484 11.9151 9.46421 11.9201C9.45359 11.9251 9.44283 11.9299 9.43196 11.9344C9.42109 11.9389 9.41011 11.9431 9.39903 11.9471C9.38796 11.9511 9.3768 11.9547 9.36554 11.9582C9.35429 11.9616 9.34295 11.9647 9.33154 11.9676C9.32013 11.9704 9.30865 11.973 9.29713 11.9753C9.28558 11.9776 9.27399 11.9796 9.26236 11.9813C9.25072 11.9831 9.23907 11.9845 9.22736 11.9856C9.21566 11.9868 9.20391 11.9877 9.19217 11.9882C9.18042 11.9888 9.16867 11.9891 9.1569 11.9891ZM18.2275 20.456C18.2043 20.4559 18.181 20.4552 18.1577 20.454C18.1345 20.4527 18.1113 20.451 18.0881 20.4486C18.065 20.4463 18.0419 20.4434 18.0189 20.4399C17.9959 20.4364 17.973 20.4324 17.9501 20.4278C17.9273 20.4232 17.9046 20.418 17.882 20.4123C17.8595 20.4067 17.837 20.4004 17.8148 20.3936C17.7925 20.3868 17.7704 20.3795 17.7485 20.3717C17.7266 20.3638 17.7049 20.3554 17.6834 20.3465C17.6619 20.3376 17.6406 20.3282 17.6196 20.3182C17.5985 20.3083 17.5777 20.2979 17.5572 20.2869C17.5367 20.276 17.5164 20.2645 17.4964 20.2526C17.4764 20.2406 17.4567 20.2282 17.4374 20.2153C17.418 20.2024 17.3989 20.1891 17.3802 20.1753C17.3615 20.1614 17.3431 20.1472 17.325 20.1325C17.307 20.1178 17.2893 20.1026 17.272 20.087C17.2547 20.0715 17.2378 20.0555 17.2213 20.0391L14.6194 17.4372C14.5852 17.4499 14.5507 17.462 14.5161 17.4735C14.4814 17.485 14.4466 17.496 14.4116 17.5064C14.3766 17.5168 14.3414 17.5266 14.3061 17.5358C14.2708 17.545 14.2353 17.5537 14.1997 17.5617C14.1641 17.5698 14.1284 17.5773 14.0925 17.5842C14.0567 17.5911 14.0207 17.5974 13.9847 17.6031C13.9486 17.6088 13.9125 17.6139 13.8762 17.6185C13.84 17.623 13.8037 17.6269 13.7673 17.6302C13.731 17.6336 13.6946 17.6363 13.6581 17.6385C13.6217 17.6406 13.5852 17.6421 13.5487 17.6431C13.5122 17.644 13.4757 17.6443 13.4392 17.6441C13.4027 17.6438 13.3662 17.643 13.3297 17.6415C13.2932 17.64 13.2568 17.638 13.2204 17.6353C13.184 17.6327 13.1476 17.6294 13.1113 17.6256C13.075 17.6217 13.0388 17.6173 13.0026 17.6122C12.9665 17.6072 12.9304 17.6016 12.8944 17.5954C12.8324 17.5853 12.7707 17.5735 12.7094 17.56C12.6481 17.5465 12.5871 17.5312 12.5266 17.5143C12.4661 17.4974 12.4061 17.4788 12.3467 17.4586C12.2872 17.4383 12.2284 17.4164 12.1702 17.3929C12.1119 17.3694 12.0544 17.3442 11.9975 17.3175C11.9407 17.2907 11.8847 17.2624 11.8294 17.2325C11.7742 17.2026 11.7198 17.1713 11.6663 17.1384C11.6128 17.1055 11.5602 17.0711 11.5086 17.0352C11.457 16.9994 11.4065 16.9621 11.357 16.9235C11.3075 16.8848 11.2591 16.8448 11.2118 16.8034C11.1646 16.7621 11.1185 16.7194 11.0736 16.6755C11.0287 16.6316 10.985 16.5865 10.9426 16.5401C10.9003 16.4937 10.8592 16.4462 10.8195 16.3976C10.7798 16.3489 10.7414 16.2992 10.7045 16.2484C10.6675 16.1976 10.632 16.1458 10.5979 16.093C10.5639 16.0403 10.5313 15.9866 10.5002 15.932C10.4692 15.8774 10.4396 15.822 10.4116 15.7658C10.3837 15.7095 10.3573 15.6525 10.3325 15.5948C10.3077 15.5371 10.2845 15.4787 10.2629 15.4197C10.2414 15.3607 10.2215 15.3012 10.2033 15.2411C10.1851 15.181 10.1685 15.1204 10.1537 15.0594C10.1388 14.9983 10.1257 14.9369 10.1143 14.8752C10.1028 14.8134 10.0932 14.7513 10.0852 14.689C10.0772 14.6267 10.071 14.5642 10.0665 14.5016C10.0621 14.439 10.0593 14.3762 10.0584 14.3134C10.0574 14.2506 10.0582 14.1878 10.0607 14.125C10.0632 14.0623 10.0675 13.9996 10.0735 13.9371C10.0795 13.8746 10.0873 13.8123 10.0968 13.7502C10.1063 13.6881 10.1175 13.6263 10.1305 13.5648C10.1434 13.5034 10.1581 13.4423 10.1744 13.3817C10.1907 13.321 10.2088 13.2609 10.2285 13.2013C10.2482 13.1416 10.2695 13.0826 10.2925 13.0241C10.2962 13.0136 10.3002 13.0032 10.3045 12.9929C10.3089 12.9826 10.3136 12.9726 10.3186 12.9626C10.3236 12.9527 10.3289 12.9429 10.3346 12.9333C10.3402 12.9237 10.3462 12.9143 10.3525 12.9051C10.3588 12.8959 10.3654 12.8869 10.3722 12.8781C10.3791 12.8694 10.3863 12.8609 10.3938 12.8526C10.4012 12.8443 10.4089 12.8363 10.4169 12.8285C10.4249 12.8207 10.4331 12.8132 10.4416 12.806C10.4501 12.7988 10.4588 12.7918 10.4677 12.7852C10.4767 12.7785 10.4859 12.7722 10.4952 12.7661C10.5046 12.7601 10.5141 12.7544 10.5239 12.749C10.5336 12.7436 10.5435 12.7385 10.5536 12.7337C10.5637 12.729 10.5739 12.7246 10.5843 12.7205C10.5947 12.7165 10.6052 12.7127 10.6158 12.7094C10.6264 12.706 10.6371 12.703 10.648 12.7003C10.6588 12.6977 10.6697 12.6954 10.6807 12.6935C10.692 12.691 10.7035 12.6888 10.715 12.6871C10.7265 12.6853 10.738 12.6838 10.7496 12.6827C10.7612 12.6817 10.7729 12.6809 10.7845 12.6805C10.7961 12.6802 10.8078 12.6801 10.8194 12.6805C10.8311 12.6808 10.8427 12.6815 10.8543 12.6825C10.8659 12.6835 10.8774 12.6849 10.889 12.6866C10.9005 12.6884 10.9119 12.6905 10.9233 12.6929C10.9347 12.6953 10.946 12.6981 10.9572 12.7012C10.9684 12.7043 10.9796 12.7078 10.9906 12.7116C11.0016 12.7154 11.0125 12.7195 11.0232 12.724C11.034 12.7284 11.0446 12.7332 11.0551 12.7383C11.0655 12.7434 11.0759 12.7488 11.086 12.7545C11.0961 12.7602 11.1061 12.7663 11.1159 12.7726C11.1256 12.7789 11.1352 12.7855 11.1446 12.7925C11.154 12.7994 11.1631 12.8066 11.1721 12.814C11.181 12.8215 11.1897 12.8292 11.1982 12.8372L12.5207 14.1597L13.3688 13.3116L12.0463 11.9891C12.0384 11.9813 12.0307 11.9732 12.0233 11.9649C12.0159 11.9566 12.0087 11.9481 12.0019 11.9394C11.995 11.9307 11.9883 11.9218 11.982 11.9126C11.9756 11.9035 11.9695 11.8942 11.9636 11.8848C11.9578 11.8753 11.9523 11.8657 11.947 11.8558C11.9418 11.846 11.9368 11.8361 11.9322 11.826C11.9276 11.8159 11.9232 11.8057 11.9192 11.7953C11.9151 11.785 11.9114 11.7745 11.9079 11.7639C11.9045 11.7533 11.9014 11.7426 11.8986 11.7319C11.8958 11.7211 11.8934 11.7103 11.8912 11.6994C11.8891 11.6885 11.8873 11.6775 11.8858 11.6665C11.8843 11.6554 11.8831 11.6444 11.8823 11.6333C11.8815 11.6222 11.881 11.6111 11.8808 11.6C11.8806 11.5889 11.8808 11.5778 11.8813 11.5667C11.8818 11.5555 11.8826 11.5445 11.8837 11.5334C11.8849 11.5223 11.8864 11.5113 11.8882 11.5004C11.8908 11.4892 11.8937 11.4781 11.897 11.4671C11.9003 11.4561 11.9039 11.4452 11.9078 11.4344C11.9117 11.4236 11.916 11.4129 11.9205 11.4024C11.9251 11.3919 11.93 11.3815 11.9352 11.3712C11.9404 11.361 11.9459 11.3509 11.9517 11.341C11.9574 11.3311 11.9635 11.3214 11.9699 11.3118C11.9763 11.3023 11.9829 11.2929 11.9899 11.2838C11.9968 11.2746 12.004 11.2657 12.0115 11.257C12.019 11.2483 12.0267 11.2398 12.0347 11.2315C12.0427 11.2233 12.0509 11.2153 12.0594 11.2075C12.0678 11.1997 12.0765 11.1922 12.0854 11.185C12.0943 11.1777 12.1034 11.1708 12.1128 11.1641C12.1221 11.1574 12.1316 11.151 12.1413 11.1448C12.151 11.1387 12.1609 11.1329 12.171 11.1273C12.181 11.1218 12.1912 11.1166 12.2016 11.1117C12.212 11.1067 12.2225 11.1021 12.2332 11.0979C12.2915 11.0752 12.3504 11.0542 12.4099 11.0348C12.4695 11.0154 12.5295 10.9977 12.59 10.9816C12.6505 10.9655 12.7113 10.9511 12.7726 10.9384C12.8339 10.9257 12.8955 10.9147 12.9574 10.9055C13.0193 10.8962 13.0814 10.8886 13.1438 10.8827C13.2061 10.8769 13.2685 10.8727 13.3311 10.8703C13.3936 10.8679 13.4562 10.8673 13.5188 10.8683C13.5813 10.8694 13.6439 10.8722 13.7063 10.8767C13.7687 10.8813 13.831 10.8875 13.8931 10.8955C13.9551 10.9035 14.017 10.9132 14.0785 10.9245C14.1401 10.9359 14.2012 10.949 14.2621 10.9638C14.3229 10.9786 14.3833 10.995 14.4432 11.0132C14.5031 11.0313 14.5624 11.051 14.6213 11.0724C14.6801 11.0939 14.7383 11.1169 14.7958 11.1415C14.8534 11.1661 14.9102 11.1923 14.9663 11.2201C15.0224 11.2479 15.0777 11.2772 15.1321 11.308C15.1866 11.3389 15.2402 11.3712 15.2929 11.405C15.3455 11.4388 15.3972 11.474 15.448 11.5107C15.4987 11.5473 15.5484 11.5853 15.597 11.6248C15.6457 11.6642 15.6931 11.7049 15.7395 11.747C15.7859 11.789 15.8311 11.8323 15.8751 11.8768C15.919 11.9214 15.9618 11.9671 16.0032 12.014C16.0446 12.0609 16.0848 12.1089 16.1236 12.158C16.1624 12.2072 16.1998 12.2573 16.2358 12.3085C16.2718 12.3597 16.3063 12.4119 16.3395 12.465C16.3726 12.5181 16.4042 12.5721 16.4344 12.6269C16.4645 12.6818 16.4931 12.7375 16.5202 12.7939C16.5472 12.8503 16.5727 12.9075 16.5966 12.9653C16.6205 13.0232 16.6428 13.0816 16.6634 13.1407C16.6841 13.1998 16.7031 13.2594 16.7204 13.3196C16.7378 13.3797 16.7535 13.4403 16.7675 13.5013C16.7815 13.5623 16.7938 13.6237 16.8044 13.6854C16.8106 13.7219 16.8162 13.7586 16.8211 13.7953C16.8261 13.8321 16.8305 13.8689 16.8343 13.9058C16.8381 13.9427 16.8414 13.9797 16.844 14.0167C16.8466 14.0537 16.8486 14.0907 16.85 14.1278C16.8515 14.1649 16.8523 14.202 16.8526 14.239C16.8528 14.2761 16.8524 14.3132 16.8515 14.3503C16.8505 14.3874 16.849 14.4244 16.8468 14.4615C16.8447 14.4985 16.842 14.5355 16.8386 14.5724C16.8353 14.6094 16.8314 14.6463 16.8269 14.6831C16.8223 14.7199 16.8172 14.7566 16.8115 14.7933C16.8058 14.8299 16.7996 14.8665 16.7927 14.903C16.7858 14.9394 16.7784 14.9757 16.7703 15.012C16.7623 15.0482 16.7537 15.0842 16.7445 15.1202C16.7353 15.1561 16.7255 15.1919 16.7152 15.2275C16.7048 15.2631 16.6939 15.2986 16.6824 15.3339C16.6709 15.3691 16.6589 15.4042 16.6463 15.4391L19.2482 18.041C19.2644 18.0576 19.2803 18.0745 19.2957 18.0919C19.3111 18.1093 19.3261 18.127 19.3407 18.145C19.3553 18.1631 19.3694 18.1816 19.3831 18.2003C19.3968 18.2191 19.41 18.2382 19.4228 18.2576C19.4355 18.277 19.4478 18.2967 19.4596 18.3167C19.4714 18.3367 19.4827 18.357 19.4935 18.3775C19.5044 18.3981 19.5147 18.4189 19.5245 18.4399C19.5343 18.461 19.5436 18.4823 19.5524 18.5038C19.5612 18.5253 19.5694 18.547 19.5771 18.5689C19.5849 18.5908 19.5921 18.6128 19.5987 18.6351C19.6054 18.6573 19.6115 18.6797 19.6171 18.7023C19.6226 18.7248 19.6277 18.7475 19.6321 18.7703C19.6366 18.7931 19.6405 18.816 19.6439 18.839C19.6473 18.8619 19.6501 18.885 19.6523 18.9081C19.6546 18.9312 19.6563 18.9544 19.6574 18.9776C19.6585 19.0008 19.6591 19.024 19.6591 19.0472C19.6591 19.0704 19.6585 19.0937 19.6574 19.1169C19.6563 19.1401 19.6546 19.1632 19.6523 19.1863C19.6501 19.2094 19.6473 19.2325 19.6439 19.2555C19.6405 19.2785 19.6366 19.3013 19.6321 19.3241C19.6277 19.3469 19.6226 19.3696 19.6171 19.3922C19.6115 19.4147 19.6054 19.4371 19.5987 19.4593C19.5921 19.4816 19.5849 19.5037 19.5771 19.5256C19.5694 19.5475 19.5612 19.5692 19.5524 19.5907C19.5436 19.6122 19.5343 19.6335 19.5245 19.6545C19.5147 19.6755 19.5044 19.6964 19.4935 19.7169C19.4827 19.7375 19.4714 19.7577 19.4596 19.7777C19.4478 19.7978 19.4355 19.8175 19.4228 19.8369C19.41 19.8563 19.3968 19.8754 19.3831 19.8941C19.3694 19.9129 19.3553 19.9313 19.3407 19.9494C19.3261 19.9675 19.3111 19.9852 19.2957 20.0026C19.2803 20.0199 19.2644 20.0369 19.2482 20.0535C19.2314 20.0701 19.2143 20.0863 19.1967 20.102C19.1792 20.1178 19.1613 20.1331 19.143 20.148C19.1247 20.1629 19.1061 20.1773 19.0871 20.1912C19.0681 20.2052 19.0487 20.2187 19.0291 20.2317C19.0094 20.2447 18.9894 20.2572 18.9692 20.2693C18.9489 20.2813 18.9283 20.2928 18.9075 20.3038C18.8866 20.3148 18.8655 20.3253 18.8442 20.3353C18.8228 20.3453 18.8012 20.3547 18.7794 20.3636C18.7576 20.3726 18.7355 20.3809 18.7133 20.3888C18.6911 20.3966 18.6686 20.4039 18.646 20.4106C18.6234 20.4173 18.6007 20.4235 18.5778 20.4291C18.5549 20.4347 18.5319 20.4398 18.5087 20.4442C18.4856 20.4487 18.4623 20.4526 18.439 20.456C18.4157 20.4593 18.3923 20.462 18.3688 20.4642C18.3453 20.4664 18.3218 20.468 18.2982 20.469C18.2747 20.47 18.2511 20.4705 18.2275 20.4704L18.2275 20.456ZM14.8207 16.546L14.9932 16.7616L17.71 19.4785C17.7179 19.4865 17.7259 19.4942 17.7341 19.5018C17.7423 19.5093 17.7507 19.5167 17.7593 19.5238C17.7679 19.531 17.7767 19.5379 17.7856 19.5446C17.7945 19.5513 17.8036 19.5578 17.8129 19.5641C17.8221 19.5703 17.8315 19.5764 17.8411 19.5822C17.8506 19.588 17.8603 19.5935 17.8701 19.5988C17.8799 19.6041 17.8899 19.6092 17.9 19.614C17.91 19.6189 17.9202 19.6234 17.9305 19.6278C17.9408 19.6321 17.9512 19.6361 17.9618 19.6399C17.9722 19.6437 17.9828 19.6472 17.9935 19.6505C18.0042 19.6538 18.015 19.6568 18.0258 19.6596C18.0366 19.6623 18.0475 19.6648 18.0584 19.667C18.0694 19.6692 18.0804 19.6711 18.0915 19.6727C18.1025 19.6744 18.1136 19.6758 18.1247 19.6769C18.1358 19.678 18.1469 19.6788 18.1581 19.6794C18.1693 19.68 18.1804 19.6802 18.1916 19.6802C18.2028 19.6802 18.2139 19.68 18.2251 19.6794C18.2362 19.6788 18.2474 19.678 18.2585 19.6769C18.2696 19.6758 18.2807 19.6744 18.2917 19.6727C18.3028 19.6711 18.3138 19.6692 18.3247 19.667C18.3357 19.6648 18.3466 19.6623 18.3574 19.6596C18.3682 19.6568 18.379 19.6538 18.3897 19.6505C18.4003 19.6472 18.4109 19.6437 18.4214 19.6399C18.4319 19.6361 18.4423 19.6321 18.4527 19.6278C18.463 19.6234 18.4731 19.6189 18.4832 19.614C18.4933 19.6092 18.5033 19.6041 18.5131 19.5988C18.5229 19.5935 18.5326 19.588 18.5421 19.5822C18.5517 19.5764 18.5611 19.5703 18.5703 19.5641C18.5796 19.5578 18.5887 19.5513 18.5976 19.5446C18.6065 19.5379 18.6153 19.531 18.6239 19.5238C18.6325 19.5167 18.6409 19.5093 18.6491 19.5018C18.6573 19.4942 18.6653 19.4865 18.6732 19.4785C18.6809 19.4705 18.6885 19.4624 18.6958 19.4541C18.7032 19.4458 18.7104 19.4373 18.7173 19.4286C18.7242 19.4199 18.731 19.4111 18.7375 19.4021C18.744 19.3931 18.7503 19.384 18.7564 19.3747C18.7625 19.3654 18.7683 19.356 18.774 19.3464C18.7796 19.3368 18.785 19.3271 18.7901 19.3173C18.7953 19.3074 18.8002 19.2975 18.8049 19.2874C18.8095 19.2773 18.814 19.2671 18.8182 19.2568C18.8223 19.2465 18.8263 19.2362 18.83 19.2257C18.8336 19.2152 18.8371 19.2047 18.8402 19.194C18.8434 19.1834 18.8463 19.1726 18.849 19.1619C18.8517 19.1511 18.854 19.1402 18.8562 19.1293C18.8583 19.1185 18.8602 19.1075 18.8618 19.0965C18.8634 19.0855 18.8647 19.0745 18.8658 19.0634C18.8668 19.0524 18.8676 19.0413 18.8682 19.0302C18.8687 19.0191 18.869 19.008 18.869 18.9969C18.869 18.9858 18.8687 18.9747 18.8682 18.9636C18.8676 18.9525 18.8668 18.9414 18.8658 18.9304C18.8647 18.9193 18.8634 18.9083 18.8618 18.8973C18.8602 18.8863 18.8583 18.8754 18.8562 18.8645C18.854 18.8536 18.8517 18.8427 18.849 18.832C18.8463 18.8212 18.8434 18.8105 18.8402 18.7998C18.8371 18.7892 18.8336 18.7786 18.83 18.7681C18.8263 18.7577 18.8223 18.7473 18.8182 18.737C18.814 18.7267 18.8095 18.7165 18.8049 18.7064C18.8002 18.6964 18.7953 18.6864 18.7901 18.6766C18.785 18.6667 18.7796 18.657 18.774 18.6474C18.7683 18.6379 18.7625 18.6284 18.7564 18.6191C18.7503 18.6098 18.744 18.6007 18.7375 18.5917C18.731 18.5827 18.7242 18.5739 18.7173 18.5652C18.7104 18.5566 18.7032 18.5481 18.6958 18.5398C18.6885 18.5314 18.6809 18.5233 18.6732 18.5154L15.9994 15.8129L15.8125 15.6116L15.9275 15.3529C15.941 15.3226 15.9539 15.2922 15.9663 15.2615C15.9787 15.2308 15.9905 15.1999 16.0017 15.1688C16.013 15.1377 16.0237 15.1064 16.0338 15.0749C16.0439 15.0434 16.0534 15.0117 16.0624 14.9799C16.0713 14.948 16.0797 14.916 16.0875 14.8839C16.0953 14.8517 16.1025 14.8195 16.1091 14.7871C16.1158 14.7546 16.1218 14.7221 16.1272 14.6895C16.1327 14.6569 16.1375 14.6242 16.1418 14.5913C16.146 14.5585 16.1497 14.5257 16.1527 14.4927C16.1558 14.4598 16.1582 14.4268 16.1601 14.3937C16.162 14.3607 16.1632 14.3277 16.1639 14.2946C16.1645 14.2615 16.1646 14.2285 16.1641 14.1954C16.1635 14.1623 16.1624 14.1292 16.1606 14.0962C16.1589 14.0632 16.1565 14.0302 16.1536 13.9972C16.1507 13.9643 16.1471 13.9314 16.143 13.8986C16.1388 13.8657 16.1341 13.833 16.1288 13.8004C16.1233 13.7665 16.1171 13.7327 16.1102 13.6991C16.1034 13.6654 16.0959 13.6319 16.0877 13.5986C16.0795 13.5652 16.0707 13.532 16.0611 13.499C16.0516 13.466 16.0415 13.4332 16.0307 13.4007C16.0199 13.3681 16.0084 13.3357 15.9963 13.3036C15.9842 13.2714 15.9715 13.2396 15.9581 13.2079C15.9448 13.1763 15.9308 13.1449 15.9161 13.1139C15.9015 13.0828 15.8863 13.052 15.8705 13.0216C15.8546 12.9911 15.8382 12.961 15.8211 12.9312C15.8041 12.9014 15.7865 12.8719 15.7682 12.8428C15.75 12.8137 15.7312 12.785 15.7119 12.7566C15.6925 12.7282 15.6726 12.7003 15.6521 12.6727C15.6317 12.6451 15.6107 12.618 15.5891 12.5913C15.5676 12.5645 15.5455 12.5382 15.5229 12.5124C15.5003 12.4865 15.4772 12.4611 15.4536 12.4362C15.43 12.4113 15.4059 12.3868 15.3813 12.3629C15.3606 12.3423 15.3395 12.322 15.3182 12.3022C15.2968 12.2823 15.2751 12.2627 15.2531 12.2436C15.2311 12.2244 15.2087 12.2056 15.1861 12.1872C15.1635 12.1687 15.1405 12.1507 15.1173 12.133C15.0941 12.1153 15.0706 12.0981 15.0468 12.0811C15.023 12.0642 14.9989 12.0477 14.9746 12.0316C14.9502 12.0155 14.9256 11.9998 14.9008 11.9845C14.8759 11.9692 14.8508 11.9543 14.8254 11.9398C14.8001 11.9254 14.7745 11.9113 14.7487 11.8977C14.7229 11.8841 14.6969 11.8708 14.6706 11.8581C14.6444 11.8453 14.6179 11.833 14.5913 11.821C14.5646 11.8091 14.5378 11.7977 14.5107 11.7867C14.4837 11.7756 14.4565 11.7651 14.4291 11.7549C14.4017 11.7448 14.3742 11.7352 14.3465 11.7259C14.3188 11.7167 14.291 11.7079 14.263 11.6996C14.235 11.6914 14.2069 11.6835 14.1786 11.6761C14.1504 11.6688 14.122 11.6619 14.0936 11.6554C14.0651 11.649 14.0365 11.643 14.0079 11.6375C13.9792 11.632 13.9504 11.627 13.9216 11.6224C13.8928 11.6179 13.8639 11.6138 13.8349 11.6102C13.8059 11.6066 13.7769 11.6035 13.7478 11.6008C13.7188 11.5982 13.6897 11.596 13.6605 11.5943C13.6314 11.5926 13.6022 11.5914 13.573 11.5907C13.5439 11.59 13.5147 11.5897 13.4855 11.5899C13.4563 11.5902 13.4271 11.5909 13.3979 11.5921C13.3688 11.5933 13.3396 11.595 13.3105 11.5971C13.2814 11.5993 13.2523 11.6019 13.2233 11.605C13.1943 11.6081 13.1653 11.6117 13.1364 11.6158C13.1075 11.6198 13.0787 11.6244 13.0499 11.6294C13.0212 11.6344 12.9925 11.6399 12.9639 11.6459C12.9354 11.6518 12.9069 11.6583 12.8785 11.6651C12.8501 11.672 12.8219 11.6794 12.7938 11.6872L14.375 13.3116L12.5207 15.2235L10.8819 13.5847C10.8706 13.629 10.8605 13.6736 10.8515 13.7185C10.8425 13.7633 10.8347 13.8083 10.828 13.8536C10.8214 13.8988 10.8159 13.9442 10.8115 13.9897C10.8072 14.0352 10.8041 14.0808 10.8021 14.1265C10.8001 14.1722 10.7993 14.2179 10.7997 14.2636C10.8001 14.3093 10.8017 14.355 10.8044 14.4007C10.8072 14.4463 10.8111 14.4919 10.8162 14.5373C10.8213 14.5828 10.8275 14.628 10.8349 14.6732C10.8424 14.7183 10.851 14.7632 10.8607 14.8079C10.8704 14.8525 10.8813 14.8969 10.8934 14.941C10.9054 14.9852 10.9186 15.0289 10.9329 15.0724C10.9472 15.1158 10.9626 15.1588 10.9791 15.2015C10.9956 15.2441 11.0132 15.2863 11.0319 15.3281C11.0506 15.3698 11.0703 15.411 11.0911 15.4517C11.1119 15.4924 11.1338 15.5326 11.1567 15.5722C11.1796 15.6118 11.2035 15.6507 11.2284 15.6891C11.2533 15.7274 11.2791 15.7651 11.306 15.8021C11.3328 15.8392 11.3606 15.8755 11.3893 15.9111C11.418 15.9467 11.4476 15.9815 11.4782 16.0155C11.5087 16.0496 11.54 16.0828 11.5722 16.1153C11.6045 16.1477 11.6375 16.1793 11.6714 16.2101C11.7052 16.2408 11.7398 16.2706 11.7752 16.2996C11.8106 16.3285 11.8468 16.3566 11.8836 16.3837C11.9204 16.4107 11.9579 16.4369 11.9961 16.462C12.0343 16.4872 12.0731 16.5113 12.1126 16.5345C12.152 16.5576 12.192 16.5797 12.2326 16.6008C12.2732 16.6219 12.3142 16.6419 12.3559 16.6609C12.3975 16.6799 12.4395 16.6978 12.4821 16.7146C12.5246 16.7314 12.5675 16.747 12.6109 16.7616C12.6542 16.7762 12.6979 16.7897 12.7419 16.802C12.786 16.8143 12.8303 16.8255 12.8749 16.8356C12.9195 16.8456 12.9643 16.8545 13.0094 16.8622C13.042 16.8675 13.0748 16.8723 13.1076 16.8764C13.1404 16.8806 13.1733 16.8841 13.2063 16.887C13.2392 16.89 13.2722 16.8923 13.3053 16.8941C13.3383 16.8958 13.3713 16.897 13.4044 16.8975C13.4375 16.8981 13.4706 16.898 13.5037 16.8973C13.5367 16.8967 13.5698 16.8954 13.6028 16.8936C13.6358 16.8917 13.6688 16.8892 13.7018 16.8862C13.7347 16.8831 13.7676 16.8795 13.8004 16.8752C13.8332 16.871 13.8659 16.8661 13.8985 16.8607C13.9312 16.8552 13.9637 16.8492 13.9961 16.8426C14.0285 16.8359 14.0608 16.8287 14.0929 16.8209C14.1251 16.8131 14.1571 16.8048 14.1889 16.7958C14.2208 16.7868 14.2525 16.7773 14.2839 16.7672C14.3155 16.7571 14.3468 16.7464 14.3779 16.7352C14.409 16.7239 14.4399 16.7121 14.4706 16.6997C14.5012 16.6874 14.5317 16.6745 14.5619 16.661L14.8207 16.546Z"   fill="#126BAE" >
</path>
</svg>
