<svg xmlns="http://www.w3.org/2000/svg" xmlns:xlink="http://www.w3.org/1999/xlink" width="10" height="10" viewBox="0 0 10 10" fill="none" padding="10">
<path d="M9.11148 0C9.6022 0 10 0.397804 10 0.888521L10 9.11148C10 9.6022 9.6022 10 9.11148 10L0.888521 10C0.397804 10 0 9.6022 0 9.11148L0 0.888521C0 0.397804 0.397804 0 0.888521 0L9.11148 0ZM6.25042 5.87318C6.1428 5.77097 5.97272 5.77265 5.86716 5.8782C5.75991 5.98546 5.75991 6.15936 5.86716 6.26661L8.11305 8.51249L6.25545 8.51252L6.24897 8.51259C6.10029 8.51604 5.98081 8.63765 5.98081 8.78716C5.98081 8.93885 6.10376 9.06181 6.25545 9.06181L9.05077 9.06181L9.05077 6.27594L9.0507 6.26946C9.04725 6.12077 8.92564 6.0013 8.77613 6.0013L8.76965 6.00137C8.62096 6.00481 8.50148 6.12642 8.50148 6.27594L8.50148 8.12411L6.25556 5.8782L6.25042 5.87318ZM4.18305 5.83634C4.07557 5.7293 3.90168 5.72967 3.79464 5.83715L1.48749 8.15403L1.48749 6.27097L1.48742 6.26448C1.48397 6.11581 1.36236 5.99632 1.21285 5.99632C1.06116 5.99632 0.938201 6.11928 0.938201 6.27097L0.938201 9.06181L3.73657 9.06181L3.74305 9.06173C3.89173 9.05829 4.0112 8.93668 4.0112 8.78716L4.01114 8.78068C4.00769 8.632 3.88608 8.51252 3.73657 8.51252L1.90571 8.51249L4.18389 6.22475L4.1889 6.21957C4.29087 6.11175 4.28884 5.94167 4.18306 5.83634L4.18305 5.83634ZM9.05077 0.949227L6.2572 0.949227L6.25071 0.949305C6.10203 0.952748 5.98255 1.07436 5.98255 1.22387L5.98263 1.23035C5.98607 1.37904 6.10768 1.49852 6.2572 1.49852L8.11503 1.4985L5.91376 3.7091L5.90874 3.71426C5.80677 3.82208 5.8088 3.99217 5.91458 4.09751C6.02205 4.20453 6.19595 4.20416 6.30299 4.09668L8.50148 1.8889L8.50148 3.74596L8.50156 3.75244C8.505 3.90113 8.62661 4.02061 8.77613 4.02061C8.92781 4.02061 9.05077 3.89765 9.05077 3.74596L9.05077 0.949227ZM3.73625 0.949227L0.93819 0.949227L0.93819 3.74125L0.938267 3.74774C0.941711 3.89641 1.06332 4.01589 1.21284 4.01589L1.21932 4.01582C1.368 4.01237 1.48748 3.89076 1.48748 3.74125L1.48748 1.88693L3.69185 4.09128L3.69701 4.09631C3.80461 4.19852 3.97471 4.19683 4.08025 4.09128C4.18752 3.98403 4.18752 3.81013 4.08025 3.70287L1.87587 1.49851L3.73625 1.49853L3.74273 1.49845C3.89141 1.49501 4.01089 1.3734 4.01089 1.22389C4.01089 1.0722 3.88794 0.949238 3.73625 0.949238L3.73625 0.949227Z"   fill="#126BAE" >
</path>
</svg>
