<svg t="1717987160420" class="icon" viewBox="0 0 1024 1024" version="1.1" xmlns="http://www.w3.org/2000/svg" p-id="3118" width="200" height="200"><path d="M511.81569846 512m-505.19676833 0a505.19676833 505.19676833 0 1 0 1010.39353671 0 505.19676833 505.19676833 0 1 0-1010.39353671 0Z" fill="#555555" p-id="3119"></path><path d="M517.26575741 552.44101708c-23.85388121 0-43.65312912-18.85141163-44.60096545-42.8632655-0.97416513-24.64374479 18.19319198-45.44348669 42.83693671-46.4176518 5.1341135-0.2106303 50.89354564-2.8698378 80.51343123-33.12161425 34.96462935-35.7281642 51.99935467-117.29474687 0.3422742-168.95182732-46.49663815-46.47030938-122.11291493-46.44398059-168.58322432 0-34.4907112 34.4907112-43.15288219 90.46571277-21.61593423 139.30561294 9.97861034 22.5637706-0.2369591 48.94521536-22.80072969 58.89749692-22.53744183 9.97861034-48.9188866-0.2632879-58.89749694-22.8007297-36.36005511-82.30378871-20.22050852-178.16690282 40.15140048-238.53881179 39.3878656-39.3878656 91.7558233-61.08278624 147.44120816-61.08278629 55.71171365 0 108.07967136 21.69492063 147.46753699 61.08278629 87.25360067 87.25360067 70.61380722 222.74153952 0.34227424 294.54014211-51.31480621 52.44694404-120.74381802 59.13445601-140.78002505 59.95064839-0.60556213-0.02632879-1.21112422 0-1.81668633 0z" fill="#FFFFFF" p-id="3120"></path><path d="M511.81569846 711.41423408c-24.67007361 0-44.65362306-19.98354947-44.65362301-44.65362303v-154.023405c0-24.67007361 19.98354947-44.65362306 44.65362301-44.65362306 24.67007361 0 44.65362306 19.98354947 44.65362307 44.65362306v154.023405c0.02632879 24.64374479-19.98354947 44.65362306-44.65362307 44.65362303z" fill="#FFFFFF" p-id="3121"></path><path d="M512.15797275 797.14076513m-45.36450036 0a45.36450033 45.36450033 0 1 0 90.72900064 0 45.36450033 45.36450033 0 1 0-90.72900064 0Z" fill="#FFFFFF" p-id="3122"></path></svg>