<svg xmlns="http://www.w3.org/2000/svg" xmlns:xlink="http://www.w3.org/1999/xlink" width="23" height="23" viewBox="0 0 23 23" fill="none">
<path d="M12.9375 7.47498L12.9375 8.62501L10.0625 8.62501L10.0625 4.3125L11.5 4.3125C15.525 4.3125 18.6875 7.47498 18.6875 11.5C18.6875 15.525 15.525 18.6875 11.5 18.6875C7.47498 18.6875 4.3125 15.525 4.3125 11.5C4.3125 9.34375 5.175 7.47498 6.75625 6.18123L6.90001 6.325L12.2187 11.0687L10.4937 12.7938L7.47498 10.0625C7.33126 10.4937 7.1875 11.0687 7.1875 11.5C7.1875 13.9437 9.05626 15.8125 11.5 15.8125C13.9437 15.8125 15.8125 13.9437 15.8125 11.5C15.8125 9.63124 14.6625 8.05 12.9375 7.47498ZM21.1313 17.6813L18.975 15.525C19.6938 14.375 20.125 12.9375 20.125 11.5C20.125 6.75625 16.2438 2.87499 11.5 2.87499C6.75625 2.87499 2.87499 6.75625 2.87499 11.5C2.87499 16.2438 6.75625 20.125 11.5 20.125C13.5125 20.125 15.3813 19.4063 16.8188 18.2562L18.8313 20.2688C16.8188 21.9938 14.375 23 11.5 23C5.175 23 0 17.825 0 11.5C0 5.175 5.175 0 11.5 0C17.825 0 23 5.175 23 11.5C23 13.8 22.2813 15.9563 21.1313 17.6813Z"   fill="#126BAE" >
</path>
</svg>
