<svg t="1718008280789" class="icon" viewBox="0 0 1024 1024" version="1.1" xmlns="http://www.w3.org/2000/svg" p-id="11064" width="200" height="200"><path d="M512 800c-247.42 0-448-71.63-448-160v160c0 88.37 200.58 160 448 160s448-71.63 448-160V640c0 88.37-200.58 160-448 160z" fill="#126bae" p-id="11065"></path><path d="M512 608c-247.42 0-448-71.63-448-160v160c0 88.37 200.58 160 448 160s448-71.63 448-160V448c0 88.37-200.58 160-448 160z" fill="#126bae" p-id="11066"></path><path d="M512 416c-247.42 0-448-71.63-448-160v160c0 88.37 200.58 160 448 160s448-71.63 448-160V256c0 88.37-200.58 160-448 160z" fill="#126bae" p-id="11067"></path><path d="M64 224a448 160 0 1 0 896 0 448 160 0 1 0-896 0Z" fill="#126bae" p-id="11068"></path></svg>