<svg t="1718011610783" class="icon" viewBox="0 0 1024 1024" version="1.1" xmlns="http://www.w3.org/2000/svg" p-id="30661" width="200" height="200"><path d="M165.278118 0a164.766223 164.766223 0 0 0-55.092706 319.934413v230.352778h110.185412V319.934413a164.702236 164.702236 0 0 0-55.092706-319.934413z m660.984498 0a165.278118 165.278118 0 0 0-155.552112 110.185412H440.677661v110.185412h229.90487A165.150144 165.150144 0 1 0 826.262616 0zM165.278118 110.185412a55.092706 55.092706 0 1 1-55.092706 55.092706 54.260877 54.260877 0 0 1 55.092706-55.092706z m605.891792 330.492249v220.306837l-126.310106 126.310107a55.092706 55.092706 0 0 0 0 77.872036l142.434801 142.434801a55.028719 55.028719 0 0 0 77.872036 0l142.434801-142.434801a55.028719 55.028719 0 0 0 0-77.872036l-126.310107-126.310107V440.677661zM55.092706 660.984498a55.092706 55.092706 0 0 0-55.092706 55.092706v220.306837a55.092706 55.092706 0 0 0 55.092706 55.092706H275.143596a55.092706 55.092706 0 0 0 55.092706-55.092706v-220.306837a55.092706 55.092706 0 0 0-55.092706-55.092706z" fill="#126bae" p-id="30662"></path></svg>