<svg t="1718006877457" class="icon" viewBox="0 0 1024 1024" version="1.1" xmlns="http://www.w3.org/2000/svg" p-id="8918" width="200" height="200"><path d="M639.54944 504.05376v-15.9744a232.89856 232.89856 0 1 0-272.34304 0v13.76256a399.1552 399.1552 0 0 0-249.77408 373.92384 71.43424 71.43424 0 0 0 77.824 62.50496h610.59072a71.43424 71.43424 0 0 0 77.824-62.50496 399.27808 399.27808 0 0 0-244.03968-371.712z" fill="#555555" p-id="8919"></path><path d="M969.07264 791.9616h-3.52256a41.45152 41.45152 0 0 0 0.36864-5.61152 301.99808 301.99808 0 0 0-163.84-285.0816v-12.12416a181.12512 181.12512 0 0 0 68.15744-142.99136 173.30176 173.30176 0 0 0-126.976-171.54048 154.74688 154.74688 0 0 1 37.4784-4.58752 170.8032 170.8032 0 0 1 164.41344 176.128 181.12512 181.12512 0 0 1-68.28032 142.9504 220.85632 220.85632 0 0 1 106.9056 118.25152 559.88224 559.88224 0 0 1 40.22272 137.216 51.6096 51.6096 0 0 1-54.92736 47.39072zM54.8864 792.04352h3.52256a41.45152 41.45152 0 0 1-0.36864-5.61152 301.99808 301.99808 0 0 1 163.84-285.0816v-12.0832a181.12512 181.12512 0 0 1-68.15744-142.9504 173.30176 173.30176 0 0 1 126.976-171.6224 154.74688 154.74688 0 0 0-37.4784-4.58752 170.8032 170.8032 0 0 0-164.41344 176.128 181.12512 181.12512 0 0 0 68.28032 142.9504 220.85632 220.85632 0 0 0-106.9056 118.25152 559.88224 559.88224 0 0 0-40.22272 137.216 51.6096 51.6096 0 0 0 54.92736 47.39072z" fill="#555555" p-id="8920"></path></svg>