<svg xmlns="http://www.w3.org/2000/svg" xmlns:xlink="http://www.w3.org/1999/xlink" width="14.000015258789062" height="14.000030517578125" viewBox="0 0 14.000015258789062 14.000030517578125" fill="none">
<path d="M13.7352 6.37582L7.6224 0.26365C7.61195 0.253231 7.60125 0.243073 7.59029 0.233178C7.57934 0.223282 7.56814 0.213662 7.55671 0.204314C7.5453 0.194967 7.53365 0.185905 7.52177 0.177129C7.5099 0.168353 7.49783 0.159872 7.48554 0.151688C7.47326 0.143503 7.46078 0.135624 7.4481 0.12805C7.43543 0.120477 7.42258 0.113218 7.40955 0.106274C7.39653 0.0993296 7.38334 0.0927085 7.36998 0.0864105C7.35662 0.0801124 7.34313 0.0741449 7.32948 0.0685079C7.31584 0.062871 7.30207 0.0575715 7.28817 0.0526093C7.27426 0.047647 7.26024 0.043028 7.24611 0.0387524C7.23199 0.0344767 7.21776 0.0305494 7.20343 0.0269707C7.18912 0.0233919 7.17472 0.0201658 7.16023 0.0172923C7.14575 0.0144189 7.1312 0.0119017 7.1166 0.00974058C7.102 0.00757946 7.08736 0.0057771 7.07266 0.00433347C7.05797 0.00288984 7.04325 0.0018067 7.0285 0.00108402C7.01376 0.00036134 6.99901 0 6.98424 0C6.96948 0 6.95472 0.00036134 6.93999 0.00108402C6.92523 0.0018067 6.91052 0.00288984 6.89583 0.00433347C6.88113 0.0057771 6.86649 0.00757946 6.85188 0.00974058C6.83728 0.0119017 6.82274 0.0144189 6.80826 0.0172923C6.79378 0.0201658 6.77937 0.0233919 6.76505 0.0269707C6.75073 0.0305494 6.73649 0.0344767 6.72237 0.0387524C6.70825 0.043028 6.69422 0.047647 6.68032 0.0526093C6.66641 0.0575715 6.65264 0.062871 6.639 0.0685079C6.62536 0.0741449 6.61186 0.0801124 6.5985 0.0864105C6.58515 0.0927085 6.57197 0.0993296 6.55894 0.106274C6.54591 0.113218 6.53306 0.120477 6.52038 0.12805C6.50771 0.135624 6.49524 0.143503 6.48295 0.151688C6.47066 0.159872 6.45859 0.168353 6.44672 0.177129C6.43484 0.185905 6.42319 0.194967 6.41177 0.204314C6.40034 0.213662 6.38915 0.223282 6.37819 0.233178C6.36724 0.243073 6.35654 0.253231 6.34608 0.26365L5.07967 1.5324L6.68965 3.1424C6.70145 3.1384 6.71332 3.13461 6.72524 3.13103C6.73718 3.12744 6.74915 3.12407 6.7612 3.12091C6.77324 3.11774 6.78534 3.11478 6.7975 3.11205C6.80965 3.1093 6.82183 3.10677 6.83407 3.10445C6.84631 3.10212 6.85858 3.10003 6.87089 3.09815C6.88321 3.09625 6.89554 3.09456 6.90791 3.09311C6.92029 3.09164 6.93267 3.09039 6.94509 3.08938C6.9575 3.08834 6.96993 3.08754 6.98236 3.08694C6.9948 3.08633 7.00725 3.08596 7.01971 3.0858C7.03216 3.08564 7.0446 3.08569 7.05706 3.08596C7.06951 3.08624 7.08195 3.08672 7.09438 3.08743C7.10682 3.08812 7.11924 3.08904 7.13164 3.09019C7.14404 3.09132 7.15643 3.09268 7.16879 3.09425C7.18113 3.09582 7.19346 3.09761 7.20575 3.09961C7.21805 3.10161 7.23031 3.10381 7.24252 3.10624C7.25473 3.10866 7.26689 3.1113 7.27902 3.11416C7.29115 3.117 7.30322 3.12006 7.31524 3.12334C7.32726 3.1266 7.33921 3.13008 7.35111 3.13378C7.36301 3.13747 7.37483 3.14135 7.38659 3.14545C7.39835 3.14955 7.41004 3.15386 7.42165 3.15837C7.43325 3.16287 7.44479 3.16757 7.45624 3.17249C7.46768 3.17739 7.47904 3.1825 7.49031 3.18781C7.50157 3.19311 7.51274 3.19861 7.52383 3.20431C7.5349 3.21 7.54588 3.21587 7.55675 3.22196C7.56762 3.22803 7.57839 3.23429 7.58903 3.24074C7.59968 3.2472 7.61022 3.25383 7.62065 3.26065C7.63107 3.26746 7.64137 3.27446 7.65155 3.28165C7.66174 3.28881 7.67179 3.29617 7.6817 3.3037C7.69163 3.31122 7.70141 3.31892 7.71107 3.32679C7.72072 3.33467 7.73024 3.3427 7.73961 3.3509C7.74898 3.3591 7.75821 3.36746 7.7673 3.37599C7.77638 3.3845 7.78531 3.39319 7.79408 3.40202C7.80287 3.41085 7.8115 3.41983 7.81996 3.42896C7.82844 3.4381 7.83674 3.44737 7.84487 3.4568C7.85302 3.46622 7.86099 3.47578 7.8688 3.48548C7.87661 3.49519 7.88425 3.50502 7.89173 3.51499C7.89919 3.52496 7.90648 3.53505 7.9136 3.54527C7.92073 3.55548 7.92766 3.56582 7.93441 3.57629C7.94116 3.58675 7.94774 3.59733 7.95413 3.60803C7.96051 3.61872 7.96672 3.62952 7.97272 3.64043C7.97872 3.65134 7.98455 3.66234 7.99018 3.67346C7.9958 3.68456 8.00124 3.69577 8.00648 3.70708C8.01171 3.71837 8.01674 3.72976 8.02158 3.74124C8.02642 3.75272 8.03106 3.76427 8.0355 3.7759C8.03994 3.78754 8.04417 3.79925 8.0482 3.81104C8.05224 3.82282 8.05605 3.83468 8.05967 3.8466C8.06328 3.85851 8.06669 3.87049 8.06989 3.88253C8.07308 3.89456 8.07608 3.90666 8.07885 3.9188C8.08163 3.93094 8.0842 3.94312 8.08655 3.95535C8.0889 3.96757 8.09104 3.97985 8.09296 3.99215C8.09489 4.00446 8.0966 4.01679 8.09809 4.02916C8.09958 4.04152 8.10087 4.05391 8.10193 4.06632C8.103 4.07872 8.10385 4.09115 8.10448 4.10359C8.1051 4.11603 8.10551 4.12847 8.10572 4.14093C8.10591 4.15337 8.10588 4.16583 8.10565 4.17828C8.10542 4.19074 8.10497 4.20318 8.1043 4.21562C8.10363 4.22806 8.10274 4.24047 8.10163 4.25289C8.10052 4.26529 8.09921 4.27767 8.09767 4.29003C8.09614 4.30239 8.09439 4.31471 8.09242 4.32702C8.09046 4.33931 8.08827 4.35157 8.08588 4.36379C8.08349 4.37602 8.08089 4.38819 8.07808 4.40033C8.07526 4.41245 8.07224 4.42454 8.069 4.43657C8.06576 4.44859 8.06233 4.46055 8.05866 4.47247C8.05501 4.48437 8.05114 4.49621 8.04708 4.50798L9.59757 6.05966C9.61177 6.05471 9.62609 6.05007 9.6405 6.04574C9.65489 6.04139 9.66939 6.03736 9.68396 6.03364C9.69853 6.02991 9.71316 6.02649 9.72789 6.02337C9.74261 6.02025 9.75738 6.01746 9.77221 6.01498C9.78705 6.01247 9.80194 6.0103 9.81687 6.00844C9.83178 6.00657 9.84675 6.00502 9.86174 6.00379C9.87673 6.00256 9.89175 6.00165 9.90677 6.00104C9.9218 6.00044 9.93684 6.00016 9.95188 6.00018C9.96693 6.00021 9.98197 6.00055 9.99699 6.00122C10.012 6.00188 10.027 6.00286 10.042 6.00416C10.057 6.00545 10.072 6.00706 10.0869 6.00899C10.1018 6.0109 10.1166 6.01314 10.1315 6.0157C10.1463 6.01824 10.1611 6.02111 10.1758 6.02429C10.1905 6.02746 10.2051 6.03093 10.2197 6.03473C10.2342 6.03851 10.2487 6.04261 10.2631 6.04701C10.2775 6.0514 10.2918 6.05609 10.3059 6.06109C10.3201 6.06609 10.3342 6.07139 10.3482 6.07698C10.3621 6.08256 10.376 6.08845 10.3897 6.09463C10.4034 6.10079 10.417 6.10725 10.4304 6.114C10.4439 6.12074 10.4572 6.12777 10.4703 6.13507C10.4835 6.14237 10.4965 6.14996 10.5093 6.15781C10.5221 6.16565 10.5348 6.17377 10.5473 6.18216C10.5598 6.19054 10.5721 6.19918 10.5842 6.20809C10.5963 6.21699 10.6083 6.22615 10.62 6.23556C10.6318 6.24495 10.6433 6.25459 10.6546 6.26449C10.6659 6.27439 10.6771 6.2845 10.688 6.29487C10.6989 6.30522 10.7096 6.3158 10.72 6.32661C10.7305 6.33741 10.7407 6.34845 10.7507 6.35968C10.7607 6.37092 10.7705 6.38237 10.78 6.39402C10.7895 6.40566 10.7988 6.4175 10.8078 6.42955C10.8168 6.44158 10.8256 6.4538 10.8341 6.46622C10.8426 6.47863 10.8508 6.49121 10.8588 6.50396C10.8668 6.51671 10.8745 6.52963 10.8819 6.54271C10.8893 6.55578 10.8965 6.56902 10.9034 6.5824C10.9102 6.59577 10.9168 6.60929 10.9231 6.62296C10.9294 6.63661 10.9355 6.65039 10.9412 6.66431C10.9469 6.67821 10.9523 6.69224 10.9575 6.70639C10.9626 6.72053 10.9674 6.73476 10.972 6.7491C10.9765 6.76344 10.9807 6.77788 10.9847 6.7924C10.9886 6.80692 10.9922 6.82151 10.9955 6.83619C10.9988 6.85086 11.0018 6.8656 11.0045 6.88041C11.0072 6.8952 11.0096 6.91005 11.0117 6.92495C11.0137 6.93985 11.0155 6.95478 11.0169 6.96977C11.0184 6.98472 11.0195 6.99972 11.0203 7.01475C11.0211 7.02976 11.0216 7.0448 11.0218 7.05985C11.022 7.07489 11.0218 7.08991 11.0214 7.10495C11.0209 7.11999 11.0201 7.135 11.019 7.15002C11.018 7.16501 11.0165 7.17999 11.0148 7.19494C11.0131 7.20987 11.0111 7.22477 11.0087 7.23964C11.0064 7.2545 11.0037 7.2693 11.0008 7.28404C10.9978 7.29878 10.9945 7.31346 10.9909 7.32808C10.9873 7.34268 10.9834 7.35721 10.9792 7.37167C10.975 7.3861 10.9705 7.40044 10.9657 7.4147C10.9609 7.42895 10.9558 7.4431 10.9504 7.45716C10.945 7.47118 10.9393 7.4851 10.9334 7.49891C10.9274 7.5127 10.9211 7.52638 10.9145 7.53991C10.908 7.55345 10.9011 7.56684 10.894 7.58009C10.8869 7.59334 10.8795 7.60644 10.8718 7.61937C10.8641 7.63231 10.8562 7.64508 10.848 7.65768C10.8398 7.67029 10.8313 7.68271 10.8226 7.69496C10.8138 7.7072 10.8048 7.71926 10.7956 7.73113C10.7864 7.74299 10.7769 7.75466 10.7671 7.76614C10.7574 7.7776 10.7474 7.78886 10.7372 7.79991C10.727 7.81096 10.7166 7.82178 10.7059 7.83239C10.6935 7.84481 10.6808 7.85692 10.6678 7.86873C10.6548 7.88053 10.6415 7.892 10.628 7.90315C10.6144 7.91429 10.6006 7.9251 10.5865 7.93558C10.5724 7.94603 10.558 7.95615 10.5435 7.96591C10.5289 7.97568 10.514 7.98507 10.499 7.9941C10.4839 8.00313 10.4687 8.0118 10.4532 8.02008C10.4377 8.02837 10.422 8.03626 10.4062 8.04377C10.3903 8.05129 10.3743 8.0584 10.3581 8.06513C10.3418 8.07186 10.3255 8.07817 10.3089 8.08411C10.2924 8.09001 10.2757 8.09552 10.2589 8.10064C10.2421 8.10572 10.2252 8.11041 10.2082 8.11469C10.1912 8.11896 10.1741 8.1228 10.1568 8.12623C10.1396 8.12966 10.1223 8.13267 10.105 8.13525C10.0876 8.13782 10.0702 8.13997 10.0527 8.14169C10.0352 8.14342 10.0177 8.1447 10.0002 8.14558C9.98268 8.14644 9.96514 8.14687 9.94757 8.14687C9.93001 8.14687 9.91247 8.14644 9.89495 8.14558C9.8774 8.1447 9.8599 8.14342 9.84243 8.14169C9.82496 8.13997 9.80754 8.13782 9.79018 8.13525C9.77281 8.13267 9.75553 8.12966 9.73831 8.12623C9.72109 8.1228 9.70396 8.11896 9.68694 8.11469C9.66992 8.11041 9.65301 8.10572 9.63621 8.10064C9.6194 8.09552 9.60275 8.09001 9.58622 8.08411C9.56969 8.07817 9.55331 8.07186 9.5371 8.06513C9.52088 8.0584 9.50485 8.05129 9.48897 8.04377C9.4731 8.03626 9.45743 8.02837 9.44195 8.02008C9.42648 8.0118 9.41122 8.00313 9.39617 7.9941C9.38111 7.98507 9.36628 7.97568 9.35169 7.96591C9.33711 7.95615 9.32276 7.94603 9.30867 7.93558C9.29457 7.9251 9.28075 7.91429 9.26719 7.90315C9.25362 7.892 9.24035 7.88053 9.22735 7.86873C9.21436 7.85692 9.20164 7.84481 9.18924 7.83239C9.17999 7.82311 9.1709 7.81366 9.162 7.80405C9.15308 7.79443 9.14435 7.78465 9.13579 7.77473C9.12724 7.7648 9.11887 7.75471 9.11069 7.74447C9.1025 7.73423 9.0945 7.72384 9.08669 7.71331C9.07888 7.70278 9.07128 7.69211 9.06386 7.68131C9.05644 7.67049 9.04922 7.65955 9.0422 7.64848C9.03519 7.63741 9.02837 7.62622 9.02176 7.6149C9.01516 7.60357 9.00876 7.59212 9.00257 7.58059C8.99639 7.56902 8.9904 7.55736 8.98463 7.54559C8.97887 7.5338 8.97332 7.52193 8.96799 7.50996C8.96266 7.49798 8.95755 7.48592 8.95265 7.47375C8.94777 7.46159 8.9431 7.44935 8.93865 7.43702C8.93421 7.42467 8.93 7.41226 8.92601 7.39977C8.92203 7.38728 8.91827 7.37473 8.91473 7.36211C8.9112 7.34948 8.9079 7.3368 8.90483 7.32406C8.90176 7.31132 8.89894 7.29852 8.89632 7.28567C8.89373 7.27282 8.89136 7.25992 8.88923 7.24699C8.88711 7.23406 8.88521 7.22108 8.88355 7.20808C8.8819 7.19508 8.88048 7.18205 8.8793 7.16899C8.87811 7.15594 8.87717 7.14287 8.87647 7.12978C8.87578 7.11668 8.87531 7.10359 8.87508 7.09048C8.87486 7.07736 8.87487 7.06425 8.87513 7.05115C8.87538 7.03806 8.87587 7.02496 8.87661 7.01188C8.87733 6.99878 8.8783 6.98569 8.87952 6.97265C8.88074 6.95959 8.88219 6.94656 8.88387 6.93358C8.88555 6.92057 8.88748 6.90761 8.88964 6.89468C8.89178 6.88175 8.89418 6.86887 8.89682 6.85603C8.89944 6.84318 8.9023 6.83038 8.9054 6.81765C8.90851 6.80491 8.91183 6.79222 8.9154 6.77962C8.91895 6.767 8.92274 6.75445 8.92676 6.74198C8.93078 6.7295 8.93501 6.7171 8.93949 6.70478C8.94396 6.69245 8.94866 6.68021 8.95357 6.66807L7.50165 5.22373L7.50165 9.02998C7.60433 9.08014 7.70115 9.1484 7.78633 9.23298C7.79865 9.24543 7.81067 9.25818 7.82238 9.27124C7.83409 9.28428 7.84546 9.2976 7.85652 9.31119C7.86758 9.32478 7.87831 9.33864 7.88869 9.35278C7.89907 9.36689 7.9091 9.38126 7.91878 9.39587C7.92846 9.41047 7.93779 9.42532 7.94674 9.44039C7.9557 9.45545 7.96428 9.47072 7.9725 9.4862C7.98072 9.50168 7.98855 9.51736 7.99599 9.53323C8.00344 9.54909 8.0105 9.56513 8.01715 9.58134C8.02382 9.59754 8.0301 9.61391 8.03595 9.63043C8.04182 9.64694 8.04729 9.66359 8.05234 9.68038C8.05739 9.69716 8.06204 9.71406 8.06628 9.73106C8.0705 9.74807 8.07432 9.76516 8.07772 9.78236C8.08111 9.79956 8.08408 9.81683 8.08663 9.83416C8.0892 9.8515 8.09132 9.86889 8.09303 9.88634C8.09474 9.90378 8.09601 9.92125 8.09687 9.93877C8.09774 9.95627 8.09816 9.97378 8.09816 9.99131C8.09816 10.0088 8.09774 10.0264 8.09687 10.0439C8.09601 10.0614 8.09474 10.0788 8.09303 10.0963C8.09132 10.1137 8.0892 10.1311 8.08665 10.1485C8.08409 10.1658 8.08111 10.1831 8.07772 10.2003C8.07432 10.2175 8.0705 10.2346 8.06626 10.2516C8.06204 10.2686 8.05739 10.2855 8.05234 10.3022C8.04729 10.319 8.04182 10.3357 8.03595 10.3522C8.0301 10.3687 8.02382 10.3851 8.01715 10.4013C8.0105 10.4175 8.00344 10.4335 7.99599 10.4494C7.98855 10.4653 7.98072 10.4809 7.9725 10.4964C7.96428 10.5119 7.9557 10.5272 7.94674 10.5422C7.93779 10.5573 7.92846 10.5721 7.91878 10.5868C7.9091 10.6014 7.89907 10.6157 7.88869 10.6299C7.87831 10.644 7.86758 10.6578 7.85652 10.6714C7.84546 10.685 7.83409 10.6983 7.82238 10.7114C7.81067 10.7244 7.79865 10.7372 7.78633 10.7496C7.77388 10.7621 7.76113 10.7743 7.74808 10.7861C7.73503 10.7979 7.7217 10.8094 7.7081 10.8206C7.69448 10.8318 7.68061 10.8426 7.66646 10.8531C7.65232 10.8636 7.63792 10.8738 7.62328 10.8836C7.60864 10.8934 7.59378 10.9028 7.57865 10.9118C7.56355 10.9209 7.54823 10.9296 7.5327 10.9379C7.51717 10.9462 7.50145 10.9541 7.48552 10.9617C7.46959 10.9692 7.4535 10.9763 7.43723 10.9831C7.42096 10.9898 7.40454 10.9962 7.38795 11.0021C7.37136 11.008 7.35465 11.0136 7.3378 11.0187C7.32094 11.0238 7.30396 11.0285 7.28688 11.0328C7.26979 11.0371 7.25262 11.0409 7.23534 11.0444C7.21807 11.0478 7.20072 11.0508 7.18329 11.0534C7.16586 11.056 7.14839 11.0581 7.13086 11.0599C7.11333 11.0616 7.09578 11.0629 7.07818 11.0638C7.06059 11.0646 7.04299 11.065 7.02537 11.065C7.00774 11.065 6.99015 11.0646 6.97255 11.0638C6.95496 11.0629 6.9374 11.0616 6.91987 11.0599C6.90235 11.0581 6.88487 11.056 6.86744 11.0534C6.85001 11.0508 6.83266 11.0478 6.81539 11.0444C6.79813 11.0409 6.78094 11.0371 6.76385 11.0328C6.74678 11.0285 6.72979 11.0238 6.71294 11.0187C6.69608 11.0136 6.67937 11.008 6.66279 11.0021C6.6462 10.9962 6.62977 10.9898 6.6135 10.9831C6.59723 10.9763 6.58114 10.9692 6.56521 10.9617C6.54928 10.9541 6.53356 10.9462 6.51803 10.9379C6.5025 10.9296 6.48719 10.9209 6.47208 10.9118C6.45697 10.9028 6.4421 10.8934 6.42745 10.8836C6.41281 10.8738 6.39842 10.8636 6.38428 10.8531C6.37013 10.8426 6.35625 10.8318 6.34263 10.8206C6.32903 10.8094 6.3157 10.7979 6.30266 10.7861C6.2896 10.7743 6.27686 10.7621 6.2644 10.7496C6.25198 10.7373 6.23986 10.7246 6.22806 10.7116C6.21626 10.6986 6.20478 10.6853 6.19364 10.6718C6.18248 10.6583 6.17167 10.6444 6.16119 10.6304C6.15072 10.6163 6.1406 10.6019 6.13084 10.5874C6.12108 10.5728 6.11167 10.558 6.10264 10.543C6.0936 10.5279 6.08493 10.5127 6.07665 10.4972C6.06836 10.4817 6.06046 10.4661 6.05294 10.4502C6.04543 10.4344 6.03831 10.4183 6.03157 10.4021C6.02484 10.3859 6.01851 10.3696 6.01259 10.3531C6.00667 10.3365 6.00116 10.3199 5.99607 10.3031C5.99097 10.2863 5.98628 10.2694 5.982 10.2524C5.97772 10.2354 5.97388 10.2182 5.97044 10.201C5.96701 10.1838 5.964 10.1666 5.96142 10.1492C5.95884 10.1318 5.95669 10.1144 5.95497 10.097C5.95325 10.0795 5.95195 10.062 5.95109 10.0445C5.95022 10.027 5.9498 10.0094 5.9498 9.9919C5.9498 9.97434 5.95024 9.95681 5.9511 9.93929C5.95196 9.92176 5.95325 9.90427 5.95497 9.88681C5.95669 9.86934 5.95884 9.85194 5.96142 9.83459C5.964 9.81722 5.96701 9.79994 5.97044 9.78274C5.97388 9.76553 5.97772 9.74841 5.982 9.73141C5.98628 9.71438 5.99097 9.69749 5.99607 9.6807C6.00116 9.66391 6.00667 9.64725 6.01259 9.63074C6.01851 9.61422 6.02484 9.59786 6.03157 9.58167C6.03831 9.56546 6.04543 9.54943 6.05294 9.53357C6.06046 9.51771 6.06836 9.50206 6.07665 9.4866C6.08493 9.47112 6.0936 9.45588 6.10264 9.44084C6.11167 9.4258 6.12107 9.41099 6.13084 9.39642C6.1406 9.38184 6.15072 9.36751 6.16119 9.35343C6.17167 9.33935 6.18248 9.32553 6.19364 9.31199C6.20478 9.29844 6.21626 9.28518 6.22806 9.27219C6.23986 9.25921 6.25198 9.24653 6.2644 9.23415C6.37058 9.12915 6.49015 9.04982 6.61733 8.99732L6.61733 5.15373C6.60101 5.14706 6.58486 5.13999 6.56889 5.13252C6.55292 5.12506 6.53714 5.1172 6.52157 5.10894C6.50599 5.10068 6.49062 5.09205 6.47547 5.08306C6.46031 5.07405 6.44539 5.06467 6.43069 5.05492C6.41601 5.04517 6.40157 5.03507 6.38738 5.02461C6.37319 5.01415 6.35926 5.00335 6.3456 4.9922C6.33194 4.98104 6.31857 4.96957 6.30549 4.95777C6.2924 4.94596 6.27961 4.93383 6.26712 4.92139C6.25463 4.90895 6.24245 4.8962 6.23059 4.88316C6.21874 4.87011 6.2072 4.85678 6.196 4.84317C6.18481 4.82955 6.17394 4.81566 6.16342 4.80153C6.15291 4.78736 6.14275 4.77297 6.13295 4.75831C6.12315 4.74365 6.11371 4.72878 6.10465 4.71366C6.09558 4.69854 6.08689 4.6832 6.07859 4.66765C6.07028 4.65209 6.06236 4.63636 6.05483 4.62042C6.04729 4.60447 6.04017 4.58836 6.03343 4.57207C6.02669 4.55577 6.02037 4.53931 6.01445 4.52272C6.00853 4.50612 6.00302 4.48937 5.99794 4.4725C5.99284 4.45561 5.98816 4.43862 5.98391 4.42152C5.97966 4.4044 5.97583 4.3872 5.97243 4.36991C5.96902 4.3526 5.96606 4.33523 5.96351 4.31779C5.96097 4.30034 5.95886 4.28284 5.95718 4.2653C5.9555 4.24775 5.95426 4.23017 5.95345 4.21256C5.95264 4.19495 5.95226 4.17732 5.95233 4.1597C5.9524 4.14206 5.95289 4.12444 5.95382 4.10684C5.95475 4.08924 5.95612 4.07165 5.95792 4.05413C5.95973 4.03658 5.96195 4.0191 5.96462 4.00168C5.96729 3.98425 5.97039 3.9669 5.9739 3.94963C5.97743 3.93235 5.98138 3.91518 5.98576 3.8981C5.99012 3.88101 5.99492 3.86406 6.00013 3.84723C6.00533 3.83039 6.01097 3.81368 6.017 3.79711C6.02303 3.78054 6.02948 3.76414 6.03633 3.7479L4.45433 2.15831L0.2625 6.34723C-0.0874998 6.70016 -0.0874998 7.27123 0.2625 7.62414L6.37583 13.7357C6.38626 13.7463 6.39694 13.7564 6.40786 13.7662C6.4188 13.7762 6.42997 13.7858 6.44137 13.7952C6.45278 13.8046 6.4644 13.8137 6.47625 13.8224C6.4881 13.8313 6.50018 13.8398 6.51244 13.848C6.5247 13.8562 6.53717 13.8641 6.54982 13.8716C6.56248 13.8792 6.57532 13.8865 6.58833 13.8935C6.60133 13.9005 6.61451 13.907 6.62786 13.9133C6.6412 13.9198 6.65468 13.9258 6.66831 13.9314C6.68194 13.937 6.69571 13.9423 6.70961 13.9472C6.72351 13.9523 6.73752 13.957 6.75164 13.9612C6.76577 13.9654 6.77998 13.9694 6.7943 13.9729C6.80861 13.9766 6.823 13.9798 6.83747 13.9827C6.85195 13.9855 6.86649 13.9881 6.88109 13.9903C6.89569 13.9924 6.91033 13.9941 6.92502 13.9956C6.93971 13.9971 6.95442 13.9982 6.96916 13.9989C6.9839 13.9996 6.99865 14 7.0134 14C7.02817 14 7.04292 13.9996 7.05766 13.9989C7.0724 13.9982 7.08711 13.9971 7.10181 13.9956C7.11649 13.9941 7.13113 13.9924 7.14573 13.9903C7.16034 13.9881 7.17486 13.9855 7.18933 13.9827C7.20381 13.9798 7.21821 13.9766 7.23252 13.9729C7.24685 13.9694 7.26106 13.9654 7.27518 13.9612C7.2893 13.957 7.30332 13.9523 7.31721 13.9472C7.3311 13.9423 7.34487 13.937 7.3585 13.9314C7.37214 13.9258 7.38562 13.9198 7.39896 13.9133C7.4123 13.907 7.42547 13.9005 7.43849 13.8935C7.45151 13.8865 7.46434 13.8792 7.47699 13.8716C7.48965 13.8641 7.50212 13.8562 7.51438 13.848C7.52666 13.8398 7.53871 13.8313 7.55056 13.8224C7.56241 13.8137 7.57403 13.8046 7.58545 13.7952C7.59685 13.7858 7.60802 13.7762 7.61895 13.7662C7.62987 13.7564 7.64056 13.7463 7.65099 13.7357L13.7352 7.65157C13.7457 7.64114 13.7558 7.63046 13.7658 7.61954C13.7758 7.6086 13.7854 7.59743 13.7948 7.58603C13.8042 7.57462 13.8133 7.56299 13.822 7.55115C13.8309 7.5393 13.8394 7.52724 13.8476 7.51496C13.8558 7.50268 13.8637 7.49023 13.8714 7.47757C13.8789 7.46491 13.8863 7.45207 13.8932 7.43905C13.9002 7.42602 13.9068 7.41284 13.9132 7.3995C13.9195 7.38616 13.9255 7.37266 13.9311 7.35902C13.9367 7.34537 13.942 7.33159 13.9471 7.3177C13.9522 7.3038 13.9568 7.28978 13.961 7.27565C13.9653 7.26151 13.9692 7.24729 13.9729 7.23296C13.9765 7.21864 13.9798 7.20424 13.9826 7.18975C13.9855 7.17525 13.988 7.16071 13.9902 7.14611C13.9924 7.13149 13.9941 7.11683 13.9956 7.10215C13.9971 7.08744 13.9982 7.07272 13.9989 7.05798C13.9996 7.04321 14 7.02846 14 7.01369C14 6.99891 13.9996 6.98415 13.9989 6.96941C13.9982 6.95464 13.9971 6.93992 13.9956 6.92524C13.9941 6.91053 13.9924 6.89587 13.9902 6.88127C13.988 6.86665 13.9855 6.85211 13.9826 6.83763C13.9798 6.82313 13.9765 6.80874 13.9729 6.79441C13.9692 6.78008 13.9653 6.76586 13.961 6.75173C13.9568 6.73759 13.9522 6.72358 13.9471 6.70967C13.942 6.69577 13.9367 6.682 13.9311 6.66836C13.9255 6.65471 13.9195 6.64123 13.9132 6.62789C13.9068 6.61453 13.9002 6.60135 13.8932 6.58833C13.8863 6.57532 13.8789 6.56248 13.8714 6.54982C13.8637 6.53716 13.8558 6.52469 13.8476 6.51241C13.8394 6.50014 13.8309 6.48808 13.822 6.47624C13.8133 6.46437 13.8042 6.45275 13.7948 6.44135C13.7854 6.42994 13.7758 6.41878 13.7658 6.40785C13.7558 6.39691 13.7457 6.38624 13.7352 6.37582Z"   fill="#555555" >
</path>
</svg>
