<svg xmlns="http://www.w3.org/2000/svg" xmlns:xlink="http://www.w3.org/1999/xlink" width="14" height="14" viewBox="0 0 14 14" fill="none">
<path d="M14 8.33325C14 6.69535 12.7616 5.3076 11.0547 4.82583C10.1448 3.11912 8.13113 1.92999 5.78736 1.92999C2.59107 1.92999 0 4.13736 0 6.86023C0 8.4685 0.907889 9.8926 2.30662 10.7925C2.33676 10.8119 2.35293 10.8449 2.34681 10.8802C2.31371 11.0709 2.20955 11.6016 2.0123 12.0264C1.9056 12.2563 2.07875 12.5164 2.33092 12.4914C2.83957 12.4411 3.57218 12.2454 4.21244 11.6052C4.21369 11.6039 4.21457 11.6028 4.21579 11.6015C4.71616 11.7217 5.24187 11.7905 5.78735 11.7905C6.42963 11.7905 7.04541 11.6977 7.62271 11.5332C8.24648 11.8452 8.96687 12.0272 9.7375 12.0272C10.0421 12.0272 10.3501 11.9974 10.6562 11.9383C11.1254 12.3274 11.6304 12.4545 11.9889 12.49C12.0104 12.4921 12.0317 12.4931 12.0525 12.4931C12.2695 12.4931 12.4687 12.3838 12.5856 12.2005C12.7042 12.0146 12.7191 11.7834 12.6257 11.5823C12.5631 11.4476 12.5162 11.2862 12.4844 11.1547C13.451 10.451 14 9.43509 14 8.33325ZM2.93686 4.95147C2.93686 4.60272 3.25493 4.32 3.64729 4.32L7.9673 4.32C8.35964 4.32 8.67773 4.60272 8.67773 4.95147L8.67773 4.96425C8.67773 5.31301 8.35964 5.59574 7.9673 5.59574L3.64729 5.59574C3.25493 5.59574 2.93686 5.31301 2.93686 4.96425L2.93686 4.95147ZM2.93686 6.75569C2.93686 6.40691 3.25493 6.12417 3.64729 6.12417L7.9673 6.12417C8.35964 6.12417 8.67773 6.4069 8.67773 6.75569L8.67773 6.76843C8.67773 7.11719 8.35964 7.39992 7.9673 7.39992L3.64729 7.39992C3.25493 7.39992 2.93686 7.11719 2.93686 6.76843L2.93686 6.75569ZM3.48942 9.20414C3.18426 9.20414 2.93686 8.92141 2.93686 8.57262L2.93686 8.55986C2.93686 8.21111 3.18425 7.92838 3.48942 7.92838L6.84943 7.92838C7.15457 7.92838 7.40199 8.21111 7.40199 8.55986L7.40199 8.57262C7.40199 8.92139 7.15459 9.20414 6.84943 9.20414L3.48942 9.20414ZM11.817 10.5864C11.655 10.691 11.5709 10.8808 11.6031 11.0729C11.6236 11.1908 11.6612 11.3763 11.7215 11.5747C11.5224 11.5102 11.3033 11.397 11.101 11.201L10.9114 11.0119L10.6814 11.0671C10.3671 11.1427 10.0497 11.1809 9.73751 11.1809C9.40999 11.1809 9.09473 11.1388 8.79477 11.0667C10.4596 10.2009 11.5747 8.64351 11.5747 6.86026C11.5747 6.5247 11.5346 6.19719 11.4596 5.88044C12.4712 6.37446 13.1536 7.28712 13.1536 8.33325C13.1536 9.21865 12.6666 10.0398 11.817 10.5864Z"   fill="#555555" >
</path>
</svg>
