<svg t="1718011562229" class="icon" viewBox="0 0 1024 1024" version="1.1" xmlns="http://www.w3.org/2000/svg" p-id="29604" width="200" height="200"><path d="M868.8 878.6c0 19.5-15.8 35.3-35.3 35.3H141.9c-19.5 0-35.3-15.8-35.3-35.3 0-19.5 15.8-35.3 35.3-35.3h691.5c19.6 0 35.4 15.8 35.4 35.3z" fill="#126bae" p-id="29605"></path><path d="M835.9 196.9H142.2c-19.9 0-36.1 17.2-36.1 38.5v488.1c0 21.3 16.1 38.5 36.1 38.5h693.7c19.9 0 36.1-17.2 36.1-38.5V235.4c0-21.2-16.1-38.5-36.1-38.5zM266.1 561.8c0 15.9-12.1 28.9-27 28.9H229c-14.9 0-27-12.9-27-28.9V397.1c0-15.9 12.1-28.9 27-28.9h10.1c14.9 0 27 12.9 27 28.9v164.7z m127.5 83c0 15.9-12.1 28.9-27 28.9h-10.1c-14.9 0-27-12.9-27-28.9V314.2c0-15.9 12.1-28.9 27-28.9h10.1c14.9 0 27 12.9 27 28.9v330.6z m127.6-83c0 15.9-12.1 28.9-27 28.9H484c-14.9 0-27-12.9-27-28.9V397.1c0-15.9 12.1-28.9 27-28.9h10.1c14.9 0 27 12.9 27 28.9v164.7z m127.5 83c0 15.9-12.1 28.9-27 28.9h-10.1c-14.9 0-27-12.9-27-28.9V314.2c0-15.9 12.1-28.9 27-28.9h10.1c14.9 0 27 12.9 27 28.9v330.6z m127.6-83c0 15.9-12.1 28.9-27 28.9h-10.1c-14.9 0-27-12.9-27-28.9V397.1c0-15.9 12.1-28.9 27-28.9h10.1c14.9 0 27 12.9 27 28.9v164.7z" p-id="29606" fill="#126bae"></path></svg>