<svg t="1717987584876" class="icon" viewBox="0 0 1024 1024" version="1.1" xmlns="http://www.w3.org/2000/svg" p-id="11087" width="200" height="200"><path d="M910.2 0H113.8C86.3 0 64 22.3 64 49.8v924.4c0 27.5 22.3 49.8 49.8 49.8h796.4c27.5 0 49.8-22.3 49.8-49.8V49.8C960 22.3 937.7 0 910.2 0zM595.3 790.7H476.8c-21 0-37.9-17-37.9-37.9V631.1c0-21 17-37.9 37.9-37.9 21 0 37.9 17 37.9 37.9v83.7h80.6c21 0 37.9 17 37.9 37.9s-16.9 38-37.9 38z m123.1-333.9H320.1c-16.5 0-29.9-17-29.9-37.9 0-21 13.4-37.9 29.9-37.9h398.2c16.5 0 29.9 17 29.9 37.9 0.1 20.9-13.3 37.9-29.8 37.9z m0-192.9H320.1c-16.5 0-29.9-17-29.9-37.9s13.4-37.9 29.9-37.9h398.2c16.5 0 29.9 17 29.9 37.9s-13.3 37.9-29.8 37.9z" fill="#555555" p-id="11088"></path></svg>